<svg xmlns="http://www.w3.org/2000/svg" viewBox="0 0 1752.000000 2000.000000" style="color:#2E7D4F"><g transform="translate(0.000000,2000.000000) scale(0.100000,-0.100000)"
fill="currentColor" stroke="none">
<path d="M6676 19985 c-11 -8 -29 -15 -40 -15 -12 0 -30 -7 -40 -15 -11 -8
-27 -15 -37 -15 -9 0 -39 -22 -65 -48 -61 -60 -65 -66 -93 -127 -13 -27 -30
-63 -38 -78 -11 -21 -14 -58 -12 -150 3 -123 -1 -147 -25 -147 -7 0 -23 -9
-36 -20 -13 -11 -27 -20 -32 -20 -16 0 -141 -91 -195 -141 -28 -27 -56 -49
-61 -49 -17 0 -216 -201 -277 -280 -33 -41 -61 -77 -65 -80 -3 -3 -17 -23 -32
-45 -14 -22 -38 -53 -52 -69 -14 -16 -26 -33 -26 -38 0 -4 -13 -27 -30 -50
-16 -22 -30 -47 -30 -55 0 -7 -4 -13 -9 -13 -5 0 -13 -9 -16 -21 -4 -12 -18
-37 -32 -58 -13 -20 -36 -58 -49 -86 -14 -27 -28 -57 -33 -65 -4 -8 -16 -33
-25 -55 -10 -22 -24 -53 -32 -68 -8 -16 -14 -37 -14 -47 0 -9 -7 -23 -15 -30
-8 -7 -15 -22 -15 -34 0 -12 -7 -31 -15 -42 -8 -10 -15 -26 -15 -34 0 -8 -7
-28 -15 -43 -8 -15 -17 -45 -21 -65 -4 -20 -10 -41 -14 -47 -4 -5 -11 -29 -15
-52 -4 -24 -11 -45 -15 -48 -5 -3 -12 -27 -15 -53 -4 -26 -13 -64 -21 -85 -8
-20 -14 -57 -14 -82 0 -24 -5 -56 -11 -72 -7 -15 -15 -59 -20 -98 -4 -38 -12
-95 -18 -125 -16 -92 -13 -674 4 -745 8 -33 15 -88 15 -121 0 -34 6 -84 14
-110 8 -27 19 -71 26 -99 19 -86 30 -125 40 -143 20 -35 40 -95 40 -118 0 -38
-33 -30 -108 27 -265 204 -457 395 -557 557 -5 9 -22 34 -37 55 -16 22 -28 46
-28 52 0 7 -7 18 -15 25 -8 7 -15 22 -15 34 0 12 -7 31 -15 42 -8 10 -15 33
-15 50 0 16 -7 39 -15 50 -8 10 -15 35 -15 55 0 20 -7 69 -16 108 -19 82 -22
78 75 128 50 27 137 106 152 138 5 11 13 27 18 35 26 46 40 92 45 145 6 69 -6
174 -25 225 -19 49 -68 131 -93 156 -29 29 -114 84 -130 84 -6 0 -17 5 -23 11
-6 6 -45 19 -86 29 -68 15 -83 16 -154 3 -73 -13 -128 -31 -163 -53 -8 -6 -24
-14 -35 -19 -48 -22 -155 -150 -155 -185 0 -6 -5 -17 -11 -23 -16 -16 -33
-107 -32 -173 2 -133 34 -210 126 -304 58 -59 147 -116 181 -116 23 0 34 -55
41 -205 5 -93 12 -147 21 -162 8 -12 14 -32 14 -44 0 -11 6 -33 14 -47 8 -15
21 -47 31 -72 9 -25 24 -58 32 -75 9 -16 26 -50 39 -75 84 -162 278 -377 574
-636 25 -21 64 -56 86 -77 23 -21 57 -50 76 -63 30 -22 305 -281 403 -379 40
-40 213 -225 336 -360 76 -82 96 -102 132 -133 16 -12 25 -27 22 -32 -4 -7
-93 -9 -239 -6 -221 5 -278 9 -301 26 -5 4 -31 10 -57 13 -26 4 -56 10 -65 15
-10 5 -40 20 -68 33 -102 49 -263 186 -388 331 -37 42 -82 86 -101 97 -46 29
-136 29 -182 0 -30 -18 -34 -26 -34 -63 0 -54 29 -110 110 -213 122 -154 296
-315 383 -354 12 -5 36 -18 52 -29 17 -11 37 -22 45 -26 15 -5 43 -17 113 -48
21 -9 48 -16 60 -16 12 0 33 -6 47 -13 15 -8 56 -17 93 -20 37 -3 76 -11 86
-17 11 -5 50 -10 88 -11 160 -1 480 -50 593 -90 51 -18 158 -63 190 -80 92
-49 119 -65 145 -83 16 -11 46 -29 65 -39 19 -10 40 -24 45 -31 6 -7 19 -16
30 -19 11 -4 31 -17 45 -29 14 -13 57 -47 95 -77 87 -67 370 -350 415 -416 18
-26 41 -56 51 -66 9 -9 33 -41 52 -71 19 -29 44 -62 56 -72 11 -11 21 -23 21
-28 0 -5 12 -25 26 -44 26 -34 33 -45 83 -136 13 -23 26 -45 30 -48 16 -13
171 -346 171 -368 0 -11 7 -25 15 -32 8 -7 15 -22 15 -34 1 -11 7 -32 15 -46
8 -14 15 -36 15 -50 0 -14 7 -34 15 -44 8 -11 15 -34 15 -50 0 -17 7 -40 15
-50 8 -11 15 -34 15 -50 1 -17 7 -42 15 -56 8 -14 14 -42 15 -63 0 -21 7 -54
15 -74 8 -19 15 -59 15 -87 0 -28 5 -69 11 -91 6 -22 15 -78 20 -124 5 -46 14
-92 19 -102 12 -22 13 -109 2 -109 -5 0 -68 59 -141 130 -73 72 -137 130 -143
130 -5 0 -31 21 -58 46 -27 25 -67 58 -88 73 -123 82 -156 104 -223 141 -94
51 -228 116 -349 167 -19 8 -48 21 -63 29 -16 8 -36 14 -46 14 -9 0 -26 7 -37
15 -10 8 -31 15 -45 15 -14 0 -34 7 -45 15 -10 8 -27 15 -37 15 -11 0 -31 6
-45 14 -28 14 -71 26 -177 51 -33 7 -89 21 -125 30 -63 16 -137 32 -250 56
-30 6 -63 15 -72 20 -9 5 -36 11 -60 15 -24 3 -62 12 -86 20 -23 8 -57 14 -75
14 -18 0 -41 7 -51 15 -11 8 -34 15 -51 15 -17 0 -40 7 -51 15 -10 8 -32 15
-49 15 -16 0 -39 7 -49 15 -11 8 -29 15 -41 15 -12 0 -30 7 -41 15 -10 8 -28
15 -39 15 -11 0 -29 7 -39 15 -11 8 -30 15 -42 15 -12 0 -27 7 -34 15 -7 8
-19 15 -26 15 -26 0 -289 145 -322 177 -7 7 -17 13 -22 13 -16 0 -204 166
-255 226 -60 69 -139 173 -148 194 -4 8 -16 29 -27 45 -45 71 -160 335 -160
369 0 8 -4 17 -9 20 -5 4 -12 24 -16 47 -4 22 -13 53 -21 67 -8 15 -14 37 -14
49 0 12 -8 36 -17 55 -9 18 -22 45 -30 60 -7 14 -13 33 -13 41 0 8 -7 20 -15
27 -8 7 -15 20 -15 30 0 10 -7 23 -15 30 -8 7 -15 21 -15 32 0 10 -7 21 -15
24 -8 4 -15 12 -15 20 0 7 -13 33 -30 57 -16 25 -30 50 -30 55 0 6 -6 15 -13
19 -7 4 -24 27 -39 49 -39 61 -180 206 -283 291 -49 41 -101 85 -115 97 -48
40 -97 81 -136 111 -71 55 -268 229 -295 260 -15 16 -46 55 -70 85 -23 30 -45
57 -49 60 -3 3 -17 23 -30 45 -13 22 -27 42 -30 45 -11 9 -80 151 -80 165 0 7
-7 26 -15 41 -8 16 -15 42 -15 58 0 16 -7 53 -16 82 -19 57 -14 84 13 84 40 0
182 141 220 218 25 51 28 70 31 174 4 115 -3 149 -39 208 -5 8 -14 26 -20 40
-25 61 -187 190 -238 190 -10 0 -35 7 -54 15 -48 20 -173 20 -211 0 -15 -8
-36 -15 -45 -15 -9 0 -46 -15 -83 -33 -77 -38 -147 -106 -176 -170 -52 -117
-52 -115 -52 -237 0 -117 3 -130 42 -200 4 -8 12 -25 17 -36 19 -43 152 -154
185 -154 7 0 21 -7 32 -15 10 -8 31 -15 46 -15 34 0 39 -9 49 -84 15 -108 35
-210 47 -239 7 -16 12 -34 12 -42 0 -7 6 -26 14 -42 8 -15 21 -45 30 -65 90
-213 200 -358 404 -531 54 -45 115 -98 137 -118 22 -20 63 -55 90 -76 93 -74
270 -258 329 -342 58 -84 156 -267 156 -293 0 -8 7 -23 15 -34 8 -10 15 -28
15 -39 0 -11 6 -31 13 -45 8 -15 17 -48 20 -74 4 -27 11 -54 16 -60 5 -6 13
-36 19 -66 17 -84 37 -162 50 -193 7 -16 12 -36 12 -47 0 -10 7 -31 15 -46 8
-16 15 -36 15 -44 0 -8 7 -24 15 -34 8 -11 15 -27 15 -37 0 -15 31 -78 87
-174 12 -22 26 -47 29 -55 36 -79 197 -276 295 -359 35 -30 72 -63 83 -74 23
-24 163 -127 172 -127 3 0 36 -19 73 -43 36 -24 91 -55 121 -71 60 -30 80 -40
108 -56 9 -6 24 -13 32 -16 8 -3 29 -12 45 -19 25 -10 82 -28 163 -51 6 -2 12
-8 12 -14 0 -5 -23 -10 -53 -10 -30 0 -76 -7 -103 -15 -27 -8 -74 -15 -104
-15 -30 -1 -73 -7 -95 -15 -22 -8 -51 -15 -65 -15 -14 0 -36 -7 -50 -15 -14
-8 -36 -14 -50 -15 -14 0 -38 -7 -54 -15 -15 -8 -35 -15 -43 -15 -8 0 -27 -6
-41 -13 -15 -8 -43 -21 -62 -29 -19 -8 -51 -22 -70 -31 -19 -9 -57 -25 -85
-37 -27 -12 -59 -25 -70 -30 -86 -38 -116 -50 -127 -50 -7 0 -22 -7 -32 -15
-11 -8 -29 -15 -40 -15 -12 0 -30 -7 -40 -15 -11 -8 -31 -15 -45 -15 -14 0
-35 -7 -45 -15 -11 -8 -36 -15 -55 -15 -20 -1 -47 -7 -61 -15 -14 -8 -44 -14
-68 -15 -23 0 -59 -7 -80 -16 -56 -24 -467 -24 -532 -1 -25 9 -61 17 -80 17
-19 0 -46 7 -60 15 -14 8 -38 14 -53 15 -16 0 -41 6 -55 13 -15 8 -45 22 -67
32 -22 9 -47 21 -55 26 -8 4 -40 20 -70 35 -30 14 -85 46 -121 70 -37 24 -69
44 -72 44 -3 0 -35 20 -71 45 -37 25 -69 45 -72 45 -3 0 -23 14 -44 30 -21 17
-41 30 -44 30 -7 0 -193 139 -217 162 -8 7 -43 36 -79 65 -100 79 -191 178
-259 282 -33 51 -61 98 -61 102 0 5 -9 26 -20 46 -11 21 -20 45 -20 53 0 9 -4
20 -9 26 -10 10 -26 77 -44 186 -8 49 -8 89 0 145 13 94 29 166 41 190 6 10
23 44 38 77 47 95 52 102 112 161 56 55 145 115 193 130 13 4 29 12 35 17 21
16 127 32 214 32 95 0 180 -14 225 -38 17 -9 35 -16 40 -16 23 -1 42 -48 47
-115 3 -39 10 -79 15 -90 6 -11 21 -42 34 -70 32 -71 109 -147 182 -183 138
-66 279 -65 421 3 76 36 128 83 168 154 44 75 61 140 61 231 1 88 -15 149 -54
208 -16 24 -29 45 -29 48 0 29 -150 154 -184 154 -6 0 -22 7 -34 16 -18 12
-45 14 -135 12 -61 -2 -128 -10 -147 -17 -77 -30 -106 -44 -158 -79 l-54 -35
-72 35 c-124 61 -164 69 -378 70 -163 1 -198 -1 -225 -15 -18 -9 -42 -17 -55
-17 -13 0 -32 -7 -42 -15 -11 -8 -27 -15 -35 -15 -18 0 -135 -75 -199 -127
-42 -34 -152 -163 -152 -178 0 -4 -13 -24 -30 -45 -16 -21 -30 -45 -30 -53 0
-8 -7 -20 -15 -27 -8 -7 -15 -20 -15 -30 0 -10 -7 -23 -15 -30 -8 -7 -15 -22
-15 -34 0 -12 -7 -31 -15 -42 -8 -10 -15 -34 -15 -52 0 -18 -7 -49 -16 -70
-13 -29 -16 -79 -17 -239 -1 -129 -6 -203 -12 -203 -10 0 -27 22 -55 75 -61
112 -95 173 -106 190 -8 11 -14 30 -14 42 0 13 -4 23 -10 23 -5 0 -13 12 -16
28 -4 15 -13 36 -20 47 -8 11 -14 27 -14 36 0 10 -6 30 -14 46 -46 90 -67 178
-76 317 -5 66 -14 148 -21 184 -12 68 -7 197 12 250 8 22 22 34 55 47 55 21
162 119 190 172 10 21 22 40 25 43 18 14 31 131 25 217 -5 76 -12 103 -40 160
-51 100 -133 175 -240 218 -54 21 -302 21 -330 0 -11 -8 -26 -15 -34 -15 -47
0 -197 -141 -223 -210 -5 -14 -15 -36 -22 -49 -19 -38 -15 -249 6 -286 9 -16
17 -37 17 -45 1 -37 78 -125 146 -167 38 -23 76 -43 84 -43 8 -1 29 -9 45 -19
34 -20 36 -45 9 -135 -20 -71 -19 -524 1 -581 8 -22 15 -53 15 -68 0 -15 7
-44 15 -64 8 -19 15 -43 15 -52 0 -9 6 -28 14 -42 7 -14 16 -43 20 -64 4 -20
11 -45 16 -54 5 -9 27 -54 49 -101 65 -136 97 -187 188 -310 89 -119 261 -299
329 -344 22 -14 64 -46 94 -71 48 -40 190 -141 238 -170 9 -5 33 -22 52 -36
19 -15 67 -44 105 -64 39 -21 86 -48 105 -59 19 -12 72 -40 117 -61 46 -22 81
-44 80 -50 -2 -6 -104 -11 -271 -12 -204 -2 -280 -6 -319 -18 -28 -8 -64 -15
-79 -15 -16 0 -38 -5 -49 -11 -11 -6 -41 -14 -67 -19 -26 -4 -72 -18 -102 -30
-93 -38 -103 -37 -125 7 -11 21 -22 45 -25 55 -18 56 -176 188 -227 188 -10 0
-24 5 -30 11 -6 6 -49 13 -96 16 -86 6 -153 -9 -247 -55 -61 -29 -163 -140
-198 -215 -30 -62 -32 -74 -32 -175 0 -70 5 -116 14 -133 7 -14 16 -39 20 -55
9 -37 78 -126 125 -163 20 -15 59 -38 86 -50 28 -12 58 -27 67 -32 10 -5 71
-9 135 -9 113 0 121 1 182 32 71 37 231 180 231 207 0 24 40 59 81 72 37 12
152 33 269 49 41 6 89 15 105 21 46 15 279 22 380 10 104 -11 218 -33 258 -50
16 -6 41 -11 57 -11 16 0 31 -4 35 -9 3 -5 19 -12 36 -16 17 -4 42 -13 57 -21
15 -8 36 -14 47 -14 11 0 29 -7 39 -15 11 -8 28 -15 37 -15 10 0 32 -8 51 -17
18 -9 45 -22 60 -30 14 -7 37 -13 50 -13 12 0 32 -7 42 -15 11 -8 32 -15 47
-15 14 0 32 -7 39 -15 7 -8 26 -15 42 -15 16 0 45 -7 65 -15 19 -8 49 -15 65
-15 16 0 45 -7 65 -15 19 -8 54 -15 77 -15 22 0 68 -7 101 -15 74 -18 475 -21
507 -4 11 6 52 15 92 19 144 17 232 32 264 46 18 8 43 14 57 14 13 0 36 6 52
14 60 30 105 46 126 46 13 0 32 7 43 15 21 16 54 20 54 6 0 -17 -29 -77 -54
-110 -14 -19 -26 -41 -26 -48 0 -7 -4 -13 -9 -13 -5 0 -13 -9 -16 -20 -22 -70
-274 -350 -314 -350 -10 0 -38 7 -61 15 -59 21 -268 21 -296 0 -10 -8 -27 -15
-36 -15 -23 0 -96 -51 -146 -101 -39 -38 -102 -152 -102 -183 0 -7 -7 -30 -15
-49 -19 -46 -19 -144 0 -181 8 -15 15 -36 15 -46 0 -55 124 -211 191 -240 13
-5 31 -14 39 -19 62 -37 107 -46 225 -45 125 2 124 2 240 61 35 18 122 105
136 136 5 12 13 29 18 37 48 83 63 280 25 335 -8 11 -14 38 -14 60 0 39 3 44
66 89 81 60 223 200 287 283 64 83 177 254 177 268 0 5 10 21 23 35 12 14 35
52 52 84 41 83 68 113 112 121 21 4 42 10 48 13 5 4 33 12 60 19 28 6 79 19
115 28 36 9 92 21 125 26 33 6 83 15 110 22 64 15 432 14 500 -1 28 -6 77 -16
110 -21 76 -13 180 -37 193 -45 6 -4 30 -10 54 -16 83 -17 264 -90 348 -140 8
-5 22 -11 30 -14 8 -4 27 -14 42 -24 91 -59 144 -96 153 -106 6 -6 32 -29 60
-51 95 -77 205 -201 293 -331 32 -48 112 -203 112 -219 0 -7 7 -18 15 -25 8
-7 15 -21 15 -30 0 -10 6 -31 14 -47 18 -37 36 -90 45 -133 4 -19 13 -45 19
-57 7 -12 12 -36 12 -53 0 -17 7 -47 15 -67 8 -19 15 -53 15 -74 0 -21 7 -56
15 -76 28 -75 36 -415 25 -1148 -8 -541 -13 -705 -25 -760 -8 -38 -15 -99 -15
-135 0 -36 -7 -87 -15 -114 -8 -27 -15 -70 -15 -96 0 -26 -7 -64 -15 -83 -8
-20 -15 -56 -15 -79 0 -24 -7 -52 -15 -62 -8 -11 -15 -36 -15 -55 -1 -20 -7
-47 -15 -61 -8 -14 -15 -36 -15 -50 0 -14 -7 -34 -15 -44 -8 -11 -15 -34 -15
-52 0 -17 -7 -37 -15 -44 -8 -7 -15 -21 -15 -31 0 -11 -13 -45 -30 -76 -16
-31 -30 -61 -30 -67 0 -6 -19 -40 -43 -75 -23 -36 -46 -72 -52 -81 -77 -125
-182 -245 -336 -385 -46 -41 -168 -126 -229 -159 -19 -10 -42 -24 -51 -32 -8
-8 -23 -14 -31 -14 -9 0 -21 -7 -28 -15 -7 -8 -22 -15 -34 -15 -12 0 -27 -5
-34 -12 -12 -12 -63 -33 -117 -48 -16 -4 -43 -13 -60 -19 -59 -20 -132 -33
-230 -41 -55 -5 -134 -13 -175 -19 -41 -6 -154 -11 -250 -11 -123 0 -193 -5
-233 -15 -32 -8 -75 -15 -96 -15 -21 0 -63 -7 -92 -16 -97 -29 -169 -54 -187
-64 -9 -5 -69 -34 -132 -65 -63 -31 -128 -65 -145 -75 -16 -10 -51 -30 -77
-44 -26 -14 -91 -56 -145 -92 -54 -36 -107 -70 -118 -75 -11 -5 -33 -18 -50
-28 -56 -36 -257 -131 -277 -131 -7 0 -18 -4 -24 -9 -5 -6 -27 -14 -49 -20
-22 -5 -53 -14 -70 -19 -89 -30 -135 -35 -386 -39 -222 -4 -277 -2 -329 11
-86 22 -472 23 -544 1 -27 -8 -77 -15 -110 -15 -34 -1 -72 -7 -86 -15 -14 -8
-37 -14 -52 -15 -14 0 -39 -6 -55 -14 -63 -31 -105 -46 -131 -46 -16 0 -32 -4
-38 -10 -5 -5 -30 -14 -54 -19 -47 -9 -104 -22 -180 -41 -25 -6 -79 -15 -120
-20 -41 -4 -104 -13 -139 -20 -48 -9 -75 -9 -105 0 -23 6 -77 15 -121 19 -84
10 -149 25 -202 47 -17 8 -40 14 -50 14 -11 0 -28 7 -39 15 -10 8 -29 15 -41
15 -12 0 -25 4 -28 10 -3 5 -27 20 -53 33 -191 93 -424 306 -627 574 -63 84
-115 154 -115 157 0 2 -16 28 -36 57 -20 30 -43 69 -50 86 -25 58 -34 38 -34
-76 0 -88 3 -110 15 -115 11 -4 15 -20 15 -55 0 -27 5 -62 11 -78 7 -15 15
-46 19 -68 9 -46 26 -97 46 -138 8 -16 14 -37 14 -47 0 -9 7 -23 15 -30 8 -7
15 -21 15 -31 0 -10 4 -20 9 -23 4 -3 21 -32 37 -63 75 -149 186 -286 335
-408 35 -29 145 -95 158 -95 6 0 11 -4 11 -10 0 -5 12 -13 28 -16 15 -4 34
-12 42 -19 8 -7 26 -15 40 -18 34 -7 89 -27 122 -43 14 -8 42 -14 61 -14 19 0
54 -7 77 -15 53 -19 307 -21 409 -3 39 7 73 9 76 6 11 -10 -22 -63 -70 -114
-63 -66 -155 -189 -183 -244 -12 -25 -26 -52 -31 -60 -5 -8 -23 -45 -41 -82
-18 -38 -36 -68 -39 -68 -4 0 -65 57 -137 126 -193 188 -381 310 -408 265 -5
-7 34 -93 110 -243 8 -14 14 -33 14 -42 0 -9 4 -16 9 -16 5 0 13 -10 16 -22 6
-21 63 -139 85 -178 5 -8 17 -33 27 -55 10 -22 50 -87 88 -144 39 -57 85 -126
104 -154 18 -28 86 -103 150 -167 112 -112 223 -195 331 -249 25 -12 52 -26
60 -30 59 -32 80 -41 95 -41 9 0 29 -6 43 -14 42 -22 127 -46 165 -46 43 0 53
-13 60 -70 14 -115 29 -195 37 -204 4 -6 11 -29 15 -51 7 -44 21 -82 74 -209
12 -27 21 -54 21 -61 0 -7 7 -18 15 -25 8 -7 15 -18 15 -26 0 -7 14 -33 30
-57 17 -25 30 -50 30 -56 0 -6 4 -11 9 -11 5 0 13 -10 16 -22 4 -13 19 -36 35
-53 15 -16 37 -46 50 -65 45 -68 285 -290 313 -290 4 0 23 -12 44 -26 21 -14
47 -30 58 -35 11 -5 27 -13 35 -18 33 -20 149 -70 176 -77 16 -4 34 -11 40
-15 6 -5 33 -12 60 -15 27 -4 57 -11 67 -16 20 -10 263 -37 339 -38 52 0 78
-18 78 -54 0 -13 13 -42 30 -64 16 -23 30 -46 30 -50 0 -12 71 -146 80 -152 4
-3 10 -14 14 -25 3 -11 16 -31 28 -45 13 -14 41 -48 63 -75 22 -27 57 -65 77
-83 53 -48 165 -132 176 -132 5 0 15 -7 22 -15 7 -8 20 -15 29 -15 9 0 22 -5
29 -12 11 -11 29 -18 143 -58 84 -29 253 -42 384 -30 116 11 186 30 247 67 21
13 40 23 43 23 13 0 45 -36 45 -51 0 -9 7 -22 15 -29 8 -7 15 -17 15 -23 0
-18 89 -147 149 -216 80 -92 209 -202 302 -258 45 -26 93 -56 107 -65 15 -10
34 -20 42 -24 8 -3 27 -12 42 -20 14 -8 31 -14 38 -14 6 0 38 -14 72 -30 33
-17 68 -30 77 -30 9 0 26 -7 37 -15 10 -8 31 -15 45 -15 15 0 43 -7 62 -15 20
-8 50 -15 67 -15 17 0 44 -7 61 -15 22 -12 54 -15 122 -13 124 4 124 15 1 90
-28 17 -70 51 -284 226 -92 76 -201 183 -323 317 -91 101 -247 296 -247 310 0
4 -14 24 -30 45 -17 21 -30 45 -30 53 0 8 -7 20 -15 27 -8 7 -15 20 -15 30 0
10 -7 23 -15 30 -8 7 -15 20 -15 30 0 10 -7 23 -15 30 -8 7 -15 20 -15 30 0
10 -7 23 -15 30 -8 7 -15 19 -15 26 0 12 -26 76 -51 126 -5 10 -9 23 -9 30 0
7 -7 26 -15 42 -9 16 -20 46 -25 65 -25 99 -34 129 -46 158 -8 17 -14 47 -14
66 0 49 -35 107 -65 107 -12 0 -28 -7 -35 -15 -7 -8 -21 -15 -32 -15 -11 0
-40 -13 -65 -30 -24 -16 -48 -30 -52 -30 -5 0 -14 -6 -20 -14 -7 -8 -26 -17
-44 -20 -18 -3 -48 -19 -67 -34 l-34 -29 18 -84 c10 -46 21 -109 25 -139 7
-53 14 -79 52 -187 14 -42 15 -54 5 -69 -12 -15 -26 -16 -132 -12 -171 8 -290
52 -373 137 -44 45 -109 130 -132 172 -8 15 -22 41 -32 58 -21 36 -10 61 25
61 11 0 36 7 56 16 66 30 256 125 287 144 17 11 64 36 105 57 41 20 114 63
162 95 47 32 89 58 93 58 3 0 37 18 73 40 94 55 168 96 232 126 30 14 62 30
70 35 8 5 22 12 30 15 25 10 84 36 105 47 11 6 36 14 55 18 36 7 89 25 127 42
47 21 53 7 53 -120 0 -110 -14 -205 -42 -288 -6 -16 -13 -43 -16 -60 -2 -16
-11 -39 -18 -50 -8 -11 -14 -27 -14 -36 0 -10 -6 -30 -14 -46 -8 -15 -22 -48
-31 -73 -21 -56 -44 -110 -56 -130 -5 -8 -12 -22 -15 -30 -3 -8 -13 -33 -22
-55 -17 -38 -20 -144 -6 -167 4 -6 27 -8 55 -5 37 5 70 20 136 64 157 103 277
243 363 423 12 25 28 57 36 72 8 14 14 35 14 45 0 11 7 28 15 39 8 10 15 30
15 44 0 14 6 36 13 50 8 15 17 47 20 73 4 26 11 55 16 64 5 10 14 50 20 88 14
95 35 198 42 210 4 6 10 27 13 49 4 21 11 46 16 55 5 9 24 48 44 88 50 104
196 320 258 384 8 8 24 30 36 51 12 20 28 38 36 41 19 7 35 -6 35 -28 0 -11 4
-54 10 -95 23 -161 32 -335 21 -396 -6 -32 -17 -90 -23 -129 -7 -38 -15 -75
-19 -80 -3 -6 -9 -28 -13 -49 -5 -22 -14 -51 -21 -65 -8 -14 -14 -31 -14 -38
0 -10 -18 -51 -42 -93 -4 -8 -11 -22 -14 -30 -3 -8 -10 -22 -15 -30 -5 -8 -12
-22 -15 -30 -3 -8 -10 -22 -15 -30 -5 -8 -12 -22 -15 -30 -3 -8 -10 -22 -15
-30 -5 -8 -12 -22 -15 -30 -3 -8 -9 -22 -14 -30 -5 -8 -18 -35 -30 -60 -12
-25 -28 -58 -35 -73 -8 -16 -15 -35 -15 -42 0 -8 -6 -29 -14 -47 -7 -18 -20
-58 -29 -88 -8 -30 -21 -73 -27 -95 -34 -116 -43 -204 -43 -420 -1 -241 15
-342 71 -478 7 -16 12 -32 12 -36 0 -28 138 -268 185 -321 58 -66 220 -220
231 -220 3 0 24 -12 47 -27 23 -16 60 -36 82 -46 22 -10 53 -25 68 -33 16 -8
34 -14 40 -14 7 0 24 -6 39 -14 14 -8 45 -17 67 -21 23 -4 43 -10 46 -15 3 -5
23 -11 45 -15 22 -4 42 -11 46 -16 8 -14 44 -11 44 4 0 20 -10 29 -105 102
-108 84 -117 93 -177 170 -27 33 -53 66 -59 74 -23 26 -82 117 -111 171 -17
30 -37 62 -44 71 -8 8 -14 22 -14 30 0 9 -7 24 -15 35 -8 10 -15 26 -15 34 0
8 -6 27 -14 41 -7 14 -16 43 -20 64 -4 20 -11 45 -16 54 -11 19 -28 106 -42
219 -19 140 25 454 72 517 4 6 11 24 14 42 4 17 14 37 22 44 8 6 14 19 14 29
0 10 7 23 15 30 8 7 15 17 15 22 0 6 13 27 29 47 16 20 30 45 32 56 2 11 13
21 24 23 16 2 25 -7 38 -36 9 -21 34 -61 54 -89 21 -29 61 -85 90 -125 28 -40
88 -111 133 -158 89 -94 101 -120 77 -163 -11 -17 -17 -51 -17 -86 0 -31 -7
-83 -15 -114 -21 -79 -21 -385 0 -442 8 -22 14 -54 15 -72 0 -34 13 -67 62
-168 61 -122 181 -255 293 -322 33 -20 70 -44 83 -54 42 -32 165 -85 224 -96
20 -4 30 -1 34 12 5 13 -4 27 -35 52 -51 43 -179 207 -197 253 -3 8 -12 29
-19 45 -39 90 -45 107 -45 120 0 7 -5 26 -12 42 -40 94 -56 396 -29 528 7 33
15 70 17 83 3 16 11 22 32 22 21 0 50 -21 121 -87 234 -219 414 -400 448 -452
33 -50 89 -130 111 -156 4 -5 11 -17 15 -25 4 -8 16 -28 26 -45 11 -16 32 -55
48 -85 15 -30 31 -56 36 -58 4 -2 7 -8 7 -13 0 -10 39 -94 59 -129 28 -49 41
-80 41 -98 0 -11 7 -33 15 -48 8 -16 15 -38 15 -49 0 -35 12 -65 25 -65 14 0
35 42 35 69 0 10 7 35 15 54 12 28 15 80 15 228 0 187 -2 206 -41 364 -6 22
-14 56 -19 75 -10 43 -30 100 -41 120 -5 8 -12 22 -15 30 -5 14 -58 122 -93
188 -7 15 -33 57 -57 93 -24 37 -44 70 -44 73 0 4 -10 17 -21 29 -12 12 -34
42 -50 66 -15 24 -43 60 -62 80 -18 20 -66 74 -107 121 -41 47 -91 103 -112
125 -60 66 -87 98 -116 140 -15 22 -33 46 -39 53 -14 14 -84 115 -95 138 -5 8
-13 22 -18 31 -6 10 -13 25 -16 33 -3 8 -9 22 -14 30 -10 17 -46 92 -64 135
-27 62 -38 102 -47 158 -5 32 -13 66 -18 76 -16 28 -23 239 -12 326 11 86 30
173 49 218 7 16 12 32 12 36 0 13 56 115 87 158 78 111 107 145 218 260 66 68
144 143 175 166 69 52 216 200 341 343 95 109 249 307 249 320 0 4 6 15 14 23
15 18 75 127 118 216 16 33 34 68 39 77 5 10 9 23 9 30 0 7 5 20 10 28 8 13
12 11 30 -7 11 -12 20 -25 20 -29 0 -9 108 -223 131 -259 10 -16 23 -39 29
-50 15 -29 32 -56 63 -96 15 -20 27 -41 27 -45 0 -5 12 -20 27 -34 14 -14 38
-43 52 -65 14 -22 48 -64 75 -92 27 -29 57 -65 66 -80 18 -30 193 -204 250
-249 113 -89 363 -358 393 -424 4 -8 18 -33 30 -55 22 -39 36 -65 70 -133 9
-19 17 -40 17 -48 0 -9 6 -25 12 -37 43 -75 56 -342 26 -492 -32 -153 -84
-295 -132 -360 -12 -16 -26 -37 -29 -45 -4 -8 -16 -28 -27 -45 -11 -16 -24
-40 -30 -53 -5 -12 -13 -22 -17 -22 -5 0 -17 -15 -27 -34 -10 -18 -30 -47 -44
-63 -15 -16 -42 -49 -61 -73 -19 -25 -69 -83 -111 -130 -42 -47 -91 -105 -110
-130 -19 -25 -51 -63 -72 -85 -20 -22 -49 -57 -63 -79 -14 -21 -32 -45 -40
-53 -47 -46 -195 -298 -195 -331 0 -11 -7 -25 -15 -32 -8 -7 -15 -22 -15 -34
0 -11 -7 -30 -15 -40 -8 -11 -15 -29 -15 -40 0 -12 -7 -30 -15 -40 -8 -11 -15
-36 -15 -55 -1 -20 -7 -47 -15 -61 -8 -14 -14 -44 -15 -66 0 -23 -7 -61 -15
-84 -11 -30 -15 -84 -15 -186 0 -141 1 -146 30 -201 19 -36 30 -71 30 -97 0
-23 5 -48 10 -56 9 -13 13 -11 29 10 11 13 21 40 24 60 4 33 24 93 48 150 6
14 17 39 24 55 28 69 90 191 102 203 7 7 13 19 13 26 0 8 7 19 15 26 8 7 15
18 15 26 0 16 44 82 136 204 72 95 495 516 557 553 38 23 47 14 52 -54 3 -30
10 -81 16 -114 16 -87 6 -379 -15 -427 -9 -21 -16 -49 -16 -62 0 -41 -74 -200
-137 -293 -50 -75 -137 -180 -169 -206 -32 -24 -32 -52 -1 -42 12 3 36 10 52
14 17 5 59 24 95 44 36 20 87 47 114 62 65 34 118 76 196 157 72 74 130 150
130 171 0 8 7 20 15 27 8 7 15 23 15 35 0 12 7 28 15 35 8 7 15 25 15 39 0 15
7 36 15 47 8 10 15 34 15 52 0 18 7 49 15 69 21 49 21 372 0 458 -8 33 -15
105 -15 160 l0 100 40 45 c87 98 240 306 240 327 0 7 5 13 10 13 6 0 15 11 20
25 19 50 41 75 58 66 15 -8 69 -97 93 -151 5 -13 13 -27 17 -30 17 -12 101
-199 108 -239 4 -20 10 -41 14 -46 18 -22 47 -315 34 -343 -4 -9 -13 -48 -20
-87 -23 -126 -65 -280 -82 -297 -7 -7 -12 -22 -12 -34 0 -12 -7 -27 -15 -34
-8 -7 -15 -21 -15 -31 0 -10 -5 -21 -11 -24 -5 -4 -14 -17 -20 -28 -12 -29
-26 -50 -74 -117 -23 -30 -48 -67 -58 -82 -25 -40 -176 -190 -227 -225 -63
-44 -102 -87 -95 -105 5 -12 12 -14 33 -7 15 5 61 18 102 30 41 12 102 34 136
50 33 16 66 29 72 29 13 0 162 89 177 105 6 6 22 19 37 28 39 24 208 187 208
201 0 6 14 26 30 44 17 18 30 35 30 38 0 2 12 23 27 47 126 196 200 520 174
768 -6 63 -14 141 -17 174 -4 33 -11 68 -16 79 -6 10 -14 42 -18 70 -4 28 -18
76 -30 106 -12 30 -24 67 -27 82 -3 15 -11 33 -19 39 -8 6 -14 19 -14 29 0 10
-7 23 -15 30 -8 7 -15 20 -15 30 0 10 -7 23 -15 30 -8 7 -15 20 -15 30 0 10
-7 23 -15 30 -8 7 -15 20 -15 30 0 10 -7 23 -15 30 -8 7 -15 21 -15 31 0 10
-4 20 -9 23 -10 7 -45 78 -56 114 -3 12 -11 22 -16 22 -5 0 -9 10 -9 23 0 13
-7 32 -15 43 -8 10 -15 25 -15 32 0 8 -7 28 -15 45 -15 33 -30 90 -45 167 -10
52 -11 432 -1 565 5 77 9 90 24 90 17 0 147 -121 147 -137 0 -4 15 -25 34 -45
43 -49 82 -111 124 -198 18 -38 40 -83 48 -98 7 -16 14 -33 14 -39 0 -5 6 -24
14 -41 22 -53 58 -197 81 -332 20 -115 60 -268 85 -330 24 -57 43 -100 52
-115 4 -8 10 -21 13 -28 13 -32 17 -39 35 -67 11 -16 23 -37 27 -45 14 -32 94
-128 154 -187 78 -75 107 -98 137 -107 12 -4 22 -12 22 -17 0 -5 8 -9 18 -9
10 0 27 -7 38 -14 12 -8 50 -16 85 -18 l64 -3 3 56 c2 41 -1 59 -13 69 -8 7
-15 23 -15 35 0 12 -7 28 -15 35 -8 7 -15 18 -15 25 0 8 -6 26 -14 42 -7 15
-21 45 -30 66 -8 20 -22 52 -29 70 -29 68 -40 104 -47 157 -4 30 -12 69 -18
85 -27 79 -60 252 -69 363 l-5 72 27 0 c15 0 39 -6 53 -14 84 -42 159 -76 170
-76 8 0 26 -6 40 -13 15 -8 43 -21 62 -29 49 -20 434 -212 440 -219 3 -3 23
-16 45 -29 22 -13 66 -43 97 -67 31 -24 61 -43 66 -43 5 0 27 -12 49 -27 130
-91 359 -193 434 -193 15 0 30 -4 34 -9 9 -15 -50 -131 -99 -192 -64 -82 -208
-189 -254 -189 -9 0 -30 -7 -47 -16 -23 -12 -63 -16 -169 -18 -159 -1 -170 4
-144 65 8 19 25 68 37 109 12 41 26 89 31 105 5 17 12 53 16 80 3 28 10 55 14
60 4 6 11 24 14 41 6 25 2 38 -19 63 -15 17 -35 31 -45 31 -10 0 -23 7 -30 15
-7 8 -21 15 -31 15 -10 0 -20 4 -23 9 -10 16 -86 51 -110 51 -14 0 -38 8 -55
17 -30 18 -30 17 -59 -10 -16 -15 -34 -47 -41 -70 -7 -23 -18 -62 -26 -87 -7
-25 -17 -62 -20 -83 -4 -20 -11 -39 -15 -42 -5 -3 -11 -23 -15 -46 -4 -22 -13
-53 -21 -67 -8 -15 -14 -35 -14 -44 0 -9 -4 -19 -9 -23 -5 -3 -13 -20 -16 -38
-9 -40 -55 -135 -95 -194 -17 -24 -30 -50 -30 -57 0 -8 -7 -19 -15 -26 -8 -7
-15 -18 -15 -26 0 -14 -126 -206 -159 -241 -12 -12 -21 -26 -21 -31 0 -26
-264 -295 -380 -387 -41 -33 -80 -64 -86 -70 -22 -21 -100 -85 -131 -107 -168
-123 -236 -183 -231 -205 2 -11 11 -17 23 -15 11 2 54 6 95 9 41 3 84 12 95
19 11 8 42 14 70 14 28 0 59 7 69 15 11 8 36 15 55 15 20 0 45 7 55 15 11 8
32 15 48 15 15 0 44 7 65 16 21 9 54 23 73 31 19 8 48 21 63 29 16 8 35 14 42
14 8 0 20 6 27 12 7 7 40 31 73 53 33 22 62 42 65 46 3 3 28 22 56 41 69 48
173 154 248 252 63 83 126 173 126 182 0 3 10 18 22 34 24 33 45 37 86 16 15
-7 45 -17 67 -21 22 -4 45 -11 51 -16 31 -25 418 -25 464 0 9 5 31 12 50 15
37 8 50 13 170 71 192 92 308 198 442 403 10 15 20 34 24 42 3 8 10 22 15 30
5 8 12 22 15 30 7 18 29 69 49 113 8 17 15 43 17 57 3 25 4 25 128 31 138 6
293 25 319 38 9 5 33 12 55 15 21 4 46 11 55 16 9 4 41 18 71 30 30 12 62 26
70 31 8 5 22 12 30 15 8 3 22 10 30 15 8 5 22 12 30 16 8 3 31 18 50 32 43 32
70 49 93 57 9 3 17 10 17 13 0 4 21 22 46 40 51 37 174 155 174 168 0 4 26 35
56 68 31 33 60 69 65 80 5 11 23 43 39 70 17 28 42 75 55 105 14 30 32 68 40
83 8 16 15 35 15 43 0 8 9 31 20 51 11 21 20 45 20 54 0 8 3 19 8 23 4 4 12
33 19 64 6 31 16 77 22 102 6 25 10 80 11 122 l0 76 48 12 c204 50 244 61 267
77 11 7 31 13 46 13 15 0 32 7 39 15 7 8 20 15 30 15 10 0 23 7 30 15 7 8 17
15 22 15 6 0 27 14 48 30 21 17 42 30 47 30 19 0 251 220 338 320 38 44 134
186 152 225 7 17 23 46 35 65 26 45 81 153 153 305 32 66 71 148 87 183 16 34
27 69 24 78 -5 13 -10 13 -41 0 -19 -8 -60 -32 -91 -53 -30 -21 -66 -44 -79
-51 -13 -7 -88 -77 -167 -157 -78 -80 -145 -145 -148 -145 -3 0 -16 24 -29 52
-79 176 -162 298 -329 482 -46 51 -51 61 -37 68 11 7 24 5 40 -6 34 -22 305
-23 388 -1 32 8 72 15 90 15 18 1 43 7 57 15 14 8 37 14 51 15 14 0 34 7 45
15 10 8 29 15 40 15 12 0 27 7 34 15 7 8 23 15 36 15 12 0 25 4 29 9 3 6 31
22 61 38 120 60 124 63 235 168 92 87 160 169 213 256 25 42 46 80 46 84 0 5
11 23 24 40 14 18 28 45 32 61 4 16 13 38 20 49 8 11 14 29 14 40 0 11 7 29
15 39 8 11 15 31 15 45 1 14 7 37 15 51 8 14 14 42 15 63 0 21 5 48 11 60 7
11 15 52 19 91 5 39 13 72 19 74 6 2 11 29 11 63 0 97 -23 81 -143 -101 -30
-47 -64 -94 -74 -105 -10 -11 -30 -36 -43 -55 -13 -19 -42 -55 -65 -79 -47
-51 -39 -43 -135 -151 -98 -109 -180 -183 -298 -265 -83 -58 -227 -135 -252
-135 -10 0 -23 -7 -30 -15 -7 -8 -27 -15 -44 -15 -17 -1 -42 -7 -56 -15 -14
-8 -39 -14 -56 -15 -17 0 -51 -7 -74 -15 -60 -21 -374 -21 -444 0 -27 8 -65
15 -85 15 -20 1 -47 7 -61 15 -14 8 -45 15 -70 15 -25 0 -54 7 -64 15 -11 8
-31 15 -45 15 -14 1 -37 7 -51 15 -14 8 -36 14 -51 15 -14 0 -30 5 -37 12 -7
7 -36 15 -64 19 -29 3 -66 11 -83 17 -106 37 -169 42 -475 42 -231 0 -322 -4
-375 -15 -97 -20 -429 -20 -465 0 -14 8 -43 14 -65 15 -22 0 -53 7 -69 15 -15
8 -36 15 -46 15 -10 0 -39 9 -66 21 -27 11 -58 24 -69 28 -48 20 -211 104
-273 141 -101 61 -103 63 -145 93 -22 15 -44 27 -48 27 -4 0 -36 19 -71 43
-35 23 -81 50 -103 61 -22 10 -47 22 -55 26 -73 40 -162 81 -190 86 -19 4 -46
13 -60 21 -14 7 -32 13 -40 13 -8 0 -24 7 -34 15 -11 8 -32 15 -46 15 -14 0
-31 5 -36 10 -6 6 -39 15 -75 20 -35 5 -89 14 -119 19 -30 5 -136 10 -235 10
-118 1 -204 6 -250 16 -39 8 -99 15 -135 15 -37 0 -76 7 -90 15 -14 8 -41 14
-61 15 -19 0 -44 7 -55 15 -10 8 -32 15 -49 15 -16 0 -39 7 -49 15 -11 8 -28
15 -39 15 -10 0 -31 6 -45 14 -15 8 -47 24 -72 36 -45 21 -64 31 -97 50 -10 6
-28 15 -41 20 -13 6 -30 16 -37 23 -31 27 -44 37 -50 37 -4 0 -52 35 -108 79
-102 78 -178 155 -249 247 -21 27 -49 62 -63 78 -14 16 -25 33 -25 38 0 5 -5
14 -10 21 -38 44 -140 227 -140 251 0 7 -7 19 -15 26 -8 7 -15 22 -15 34 0 11
-7 30 -15 40 -8 11 -15 29 -15 41 0 12 -7 30 -15 41 -8 10 -15 30 -15 44 0 14
-7 36 -15 50 -8 14 -14 39 -15 55 0 17 -7 43 -15 59 -8 15 -15 42 -15 60 -1
17 -7 49 -15 71 -8 22 -15 54 -15 71 0 17 -7 51 -15 74 -8 23 -15 65 -15 93 0
28 -7 94 -15 147 -25 165 -40 474 -40 815 0 370 19 803 41 912 8 40 14 98 14
130 0 32 7 76 15 98 8 22 14 60 15 85 0 25 7 56 15 70 8 14 14 39 15 55 0 17
6 39 14 50 7 11 16 34 18 50 7 36 25 90 44 127 8 14 14 33 14 41 0 8 7 20 15
27 8 7 15 23 15 35 0 12 7 28 15 35 8 7 15 18 15 24 0 17 66 144 94 181 15 19
26 36 26 40 0 3 24 36 52 73 110 142 300 311 396 352 12 5 22 13 22 17 0 5 10
13 23 19 12 6 66 34 119 62 54 27 111 53 128 57 16 4 30 11 30 16 0 5 10 9 23
9 13 0 32 7 43 15 10 8 30 15 44 15 14 0 37 7 52 14 16 8 49 18 75 22 27 3 56
11 65 16 10 4 53 13 95 18 43 5 107 14 143 19 101 15 565 -13 602 -36 7 -3 46
-12 87 -19 86 -14 151 -31 198 -50 17 -8 40 -14 50 -14 28 0 43 -20 101 -139
29 -56 82 -148 119 -203 38 -55 73 -107 78 -115 36 -55 185 -208 307 -317 84
-74 88 -85 50 -146 -12 -19 -16 -53 -16 -140 0 -111 1 -117 34 -185 44 -88
133 -179 220 -224 64 -34 67 -34 197 -35 131 0 150 4 223 45 8 5 25 13 37 19
31 13 153 142 153 161 0 9 7 22 15 29 8 7 15 24 15 39 1 14 7 37 15 51 20 35
20 189 0 216 -8 10 -15 31 -15 45 0 15 -7 32 -15 39 -8 7 -15 20 -15 29 0 30
-142 163 -200 186 -8 4 -30 13 -48 21 -48 20 -243 19 -284 -2 -28 -15 -34 -15
-69 2 -53 23 -294 272 -341 351 -20 33 -39 72 -43 85 -4 12 -14 32 -21 43 -23
33 -18 55 14 55 15 0 36 -7 46 -15 11 -8 30 -15 43 -15 13 0 51 -13 85 -30 33
-16 68 -30 78 -30 10 0 23 -6 29 -14 7 -8 31 -16 54 -19 23 -3 60 -10 82 -15
197 -52 774 -48 908 7 16 6 43 11 61 11 17 0 37 5 42 10 6 6 33 15 60 19 27 5
65 14 84 21 80 27 97 32 133 40 21 4 44 13 50 19 6 6 20 11 32 11 12 0 30 7
41 15 10 8 30 15 42 15 13 0 38 6 55 13 44 19 95 37 137 48 19 6 44 14 55 19
11 5 37 11 59 15 21 3 46 10 55 16 9 5 52 13 96 19 44 6 105 15 135 19 162 27
533 -1 643 -47 16 -7 43 -12 62 -12 27 0 39 -8 64 -39 17 -21 31 -44 31 -49 0
-18 161 -182 179 -182 9 0 22 -5 28 -11 47 -47 251 -65 351 -30 29 10 58 23
65 30 6 6 15 11 20 11 13 0 86 58 119 95 15 17 44 64 65 105 37 74 38 77 38
190 -1 89 -5 123 -18 149 -9 19 -17 38 -17 42 0 5 -16 32 -36 61 -37 55 -126
128 -154 128 -9 0 -20 4 -25 8 -6 5 -40 19 -78 31 -102 34 -262 24 -337 -21
-8 -4 -29 -15 -47 -23 -33 -15 -114 -107 -166 -187 -20 -32 -59 -37 -91 -13
-11 8 -36 15 -55 15 -20 1 -47 7 -61 15 -14 8 -44 14 -66 15 -23 0 -57 6 -75
14 -27 11 -92 14 -324 11 -160 -1 -311 -6 -337 -10 -38 -6 -48 -4 -48 7 0 14
13 22 90 55 19 8 42 19 50 24 8 5 27 14 43 20 15 6 27 15 27 20 0 5 5 9 11 9
6 0 44 21 84 48 148 94 178 112 191 112 8 0 14 3 14 8 0 4 17 18 38 32 33 22
151 107 177 128 6 4 39 30 75 57 94 72 316 296 388 392 34 45 62 85 62 88 0 4
12 24 27 44 50 65 73 111 147 286 7 17 21 57 31 90 9 33 22 68 27 78 5 10 12
42 14 70 3 29 12 69 20 90 17 44 19 454 4 525 -14 61 -27 114 -35 140 -5 14
-3 22 5 22 13 0 54 17 140 58 54 26 170 132 170 155 0 7 7 25 15 41 38 72 36
268 -3 346 -49 99 -123 172 -224 221 -24 11 -51 25 -60 30 -30 16 -252 11
-284 -6 -16 -8 -39 -15 -50 -15 -12 0 -27 -7 -34 -15 -7 -8 -17 -15 -22 -15
-14 0 -87 -59 -122 -98 -36 -41 -75 -119 -76 -149 0 -12 -4 -25 -10 -28 -13
-8 -13 -156 -1 -187 6 -13 12 -39 15 -59 8 -44 73 -145 119 -185 19 -16 61
-45 94 -65 l60 -36 7 -127 c9 -150 -1 -337 -20 -383 -8 -18 -14 -48 -14 -66 0
-19 -7 -51 -15 -70 -8 -20 -15 -51 -15 -69 0 -18 -7 -42 -15 -52 -8 -11 -15
-30 -15 -42 0 -12 -7 -27 -15 -34 -8 -7 -15 -23 -15 -35 0 -12 -7 -28 -15 -35
-8 -7 -15 -18 -15 -26 0 -7 -6 -19 -12 -26 -7 -7 -31 -49 -53 -93 -40 -82 -99
-165 -116 -165 -5 0 -9 62 -9 146 0 80 -5 154 -10 164 -6 10 -14 45 -19 77 -9
60 -24 109 -47 155 -8 14 -14 35 -14 46 0 11 -7 25 -15 32 -8 7 -15 18 -15 24
0 17 -34 82 -64 121 -14 18 -26 38 -26 43 0 5 -35 45 -77 89 -83 86 -176 155
-258 192 -27 13 -63 29 -78 37 -16 8 -37 14 -48 14 -11 0 -34 7 -51 16 -25 13
-67 16 -227 16 -216 1 -285 -12 -356 -66 -43 -33 -64 -33 -117 3 -24 16 -70
43 -103 61 -59 33 -62 33 -185 33 -108 0 -132 -3 -172 -22 -26 -12 -50 -26
-53 -31 -3 -6 -14 -10 -23 -10 -25 0 -115 -96 -150 -160 -36 -65 -62 -162 -62
-229 0 -86 65 -243 127 -304 38 -39 158 -100 226 -116 106 -25 250 -3 336 49
26 17 51 30 55 30 11 0 76 74 76 87 0 6 6 18 13 25 33 36 72 154 82 248 5 50
9 58 38 73 66 36 207 50 327 33 225 -32 432 -193 510 -397 11 -30 26 -65 33
-78 16 -32 17 -362 1 -382 -7 -8 -15 -30 -19 -49 -4 -19 -11 -41 -16 -50 -4
-8 -18 -37 -31 -65 -12 -27 -35 -66 -50 -86 -15 -20 -28 -40 -28 -43 0 -11
-147 -181 -187 -216 -104 -91 -159 -137 -193 -160 -20 -14 -47 -35 -60 -47
-13 -13 -42 -35 -64 -50 -23 -15 -51 -36 -63 -46 -12 -11 -31 -25 -42 -31 -29
-16 -144 -93 -158 -105 -7 -6 -15 -11 -19 -11 -5 0 -185 -104 -244 -141 -8 -5
-22 -12 -30 -15 -29 -11 -85 -37 -100 -46 -8 -4 -19 -10 -25 -12 -5 -1 -26 -9
-45 -16 -19 -6 -53 -16 -75 -20 -22 -4 -53 -12 -68 -19 -44 -18 -521 -15 -572
4 -22 8 -60 14 -85 15 -25 0 -56 7 -70 15 -14 8 -39 14 -57 15 -18 0 -47 6
-65 14 -50 20 -99 37 -143 47 -22 6 -44 14 -49 20 -6 5 -17 9 -25 9 -9 0 -29
7 -45 15 -15 8 -33 15 -38 15 -5 0 -42 15 -81 33 -40 19 -92 42 -117 52 -56
22 -109 45 -135 58 -11 6 -36 14 -55 18 -40 8 -96 27 -125 42 -38 20 -293 59
-397 61 -37 1 -48 5 -48 17 0 19 20 29 59 29 15 0 36 7 47 15 10 8 27 15 36
15 10 0 46 14 80 31 35 17 79 38 98 47 19 9 77 41 128 72 51 30 108 63 125 73
18 11 41 27 52 37 11 10 38 29 60 42 46 29 298 278 317 313 7 13 37 58 66 100
28 41 52 78 52 82 0 4 6 14 14 22 21 24 104 189 111 222 4 16 11 31 16 34 5 4
9 14 9 23 0 9 6 29 14 43 7 14 16 43 20 65 5 21 11 44 16 49 4 6 11 33 15 60
4 28 10 55 13 60 7 9 12 34 43 175 6 30 18 69 25 87 8 17 14 40 14 51 0 11 7
33 15 48 8 16 15 36 15 45 0 9 7 22 15 29 8 7 15 20 15 30 0 10 7 23 15 30 8
7 15 19 15 27 0 8 13 32 28 52 16 20 38 52 50 71 28 47 297 310 392 384 169
133 451 435 510 547 56 107 90 178 95 202 4 15 11 30 16 33 5 3 9 11 9 19 0 8
5 26 12 42 14 34 35 134 48 225 10 73 15 88 33 88 19 0 157 71 157 81 0 5 7 9
15 9 28 0 126 147 140 211 4 16 11 31 16 34 25 16 1 192 -37 268 -8 16 -14 34
-14 42 0 22 -126 149 -166 168 -22 10 -52 25 -67 33 -16 8 -34 14 -42 14 -7 0
-26 7 -41 15 -38 19 -160 19 -194 0 -14 -8 -35 -14 -47 -15 -71 -1 -227 -128
-274 -223 -41 -85 -53 -200 -32 -312 19 -99 105 -215 207 -278 l49 -30 -6 -67
c-3 -36 -10 -77 -15 -90 -5 -14 -18 -52 -28 -85 -24 -82 -46 -124 -119 -235
-70 -105 -282 -322 -415 -423 -211 -161 -387 -322 -530 -485 -30 -34 -57 -68
-59 -75 -2 -6 -16 -28 -31 -47 -47 -61 -143 -241 -155 -293 -4 -15 -11 -30
-16 -33 -5 -3 -9 -15 -9 -27 0 -12 -7 -35 -15 -51 -8 -15 -15 -35 -15 -43 0
-8 -6 -29 -14 -46 -8 -18 -24 -61 -35 -97 -12 -36 -26 -74 -31 -85 -5 -11 -19
-42 -30 -70 -29 -68 -60 -131 -90 -182 -6 -10 -13 -25 -17 -33 -3 -8 -19 -31
-35 -51 -15 -20 -28 -41 -28 -46 0 -27 -233 -261 -338 -338 -87 -65 -199 -134
-242 -151 -8 -3 -22 -10 -30 -15 -8 -5 -22 -12 -30 -15 -26 -10 -84 -36 -113
-50 -16 -8 -36 -14 -45 -14 -9 0 -26 -7 -36 -15 -11 -8 -31 -15 -45 -15 -14 0
-35 -7 -45 -15 -11 -8 -29 -15 -41 -15 -12 0 -30 -7 -41 -15 -10 -8 -37 -15
-59 -15 -22 0 -51 -7 -65 -15 -14 -8 -38 -14 -55 -15 -16 0 -50 -6 -75 -14
-51 -17 -130 -33 -211 -45 -30 -5 -65 -13 -77 -20 -11 -6 -36 -11 -56 -11 -19
0 -47 -5 -63 -11 -27 -11 -81 -25 -188 -49 -27 -6 -57 -15 -66 -20 -9 -5 -34
-12 -55 -16 -22 -3 -43 -10 -49 -14 -5 -4 -25 -11 -43 -15 -18 -4 -45 -13 -60
-21 -15 -8 -35 -14 -44 -14 -9 0 -31 -7 -50 -16 -74 -37 -90 -44 -101 -44 -11
0 -126 -52 -157 -71 -8 -5 -22 -12 -30 -15 -8 -3 -22 -10 -30 -15 -8 -5 -22
-12 -30 -15 -15 -6 -79 -37 -128 -63 -15 -8 -29 -17 -32 -20 -3 -3 -21 -15
-40 -26 -151 -84 -421 -325 -534 -477 -64 -85 -88 -104 -80 -60 2 15 9 63 14
107 13 118 30 233 42 290 6 27 15 77 19 110 8 61 22 126 41 180 6 17 14 48 18
70 4 22 13 56 20 75 24 70 32 96 40 129 5 18 13 38 19 44 6 6 11 21 11 33 0
12 7 27 15 34 8 7 15 21 15 31 0 16 39 103 71 159 4 8 22 42 38 75 73 144 152
280 185 318 10 12 26 33 34 47 26 40 134 184 146 195 7 6 29 33 50 60 114 152
434 429 634 550 36 22 99 61 117 73 11 6 27 15 35 18 8 3 22 10 30 15 8 5 22
12 30 15 8 3 22 10 30 15 8 5 22 12 30 15 8 3 28 12 43 20 16 7 38 14 49 14
11 0 34 6 51 14 30 12 134 44 217 66 19 6 109 14 200 19 176 11 314 27 342 42
9 5 36 11 60 15 24 3 58 12 75 20 18 8 47 21 65 29 65 28 124 57 153 76 17 10
37 22 45 26 8 3 49 32 90 64 115 88 276 262 314 340 3 8 17 34 31 58 37 66 34
102 -13 135 -48 33 -110 35 -161 4 -20 -12 -74 -58 -121 -102 -193 -183 -338
-298 -396 -312 -13 -3 -24 -10 -24 -15 0 -4 -16 -11 -37 -15 -20 -4 -48 -13
-62 -20 -14 -8 -36 -14 -49 -14 -13 0 -33 -5 -45 -12 -14 -7 -104 -14 -242
-18 -121 -4 -230 -10 -242 -15 -34 -11 -30 20 5 42 34 21 238 226 357 358 160
178 458 480 555 563 187 159 482 450 526 518 20 30 48 66 75 94 25 26 119 186
119 203 0 8 7 20 15 27 8 7 15 22 15 34 0 11 7 30 15 40 8 11 15 31 15 45 0
14 7 35 15 45 8 11 15 30 15 42 0 12 7 41 15 64 10 27 16 89 18 168 2 100 6
127 17 130 20 6 89 40 103 52 71 57 114 97 124 114 41 73 56 109 67 176 8 45
10 82 5 92 -5 9 -9 36 -9 60 -1 24 -9 61 -20 83 -11 22 -19 45 -20 51 0 6 -30
44 -67 84 -65 70 -129 120 -155 120 -7 0 -26 7 -43 16 -22 12 -58 17 -132 17
-104 0 -113 -2 -230 -55 -45 -21 -163 -140 -163 -165 0 -8 -6 -24 -12 -36 -11
-19 -24 -60 -45 -146 -7 -30 23 -173 50 -230 29 -63 127 -164 192 -197 83 -42
81 -33 44 -149 -7 -22 -16 -62 -20 -90 -7 -52 -22 -101 -45 -147 -8 -14 -14
-33 -14 -41 0 -8 -7 -20 -15 -27 -8 -7 -15 -18 -15 -26 0 -7 -13 -33 -30 -57
-16 -25 -30 -50 -30 -55 0 -6 -6 -15 -13 -19 -7 -4 -37 -39 -67 -78 -98 -127
-476 -475 -516 -475 -6 0 -17 -7 -24 -15 -18 -22 -50 -19 -50 5 0 11 4 28 10
38 20 36 50 112 50 126 0 8 4 17 9 20 5 4 12 25 16 48 4 22 14 56 21 74 8 18
14 47 14 64 0 17 5 41 12 53 6 12 15 56 19 97 5 41 13 98 18 125 14 69 13 600
0 650 -6 22 -15 75 -19 117 -4 42 -11 82 -15 89 -4 6 -12 50 -16 97 -5 48 -14
91 -19 96 -6 6 -10 26 -10 45 0 20 -7 49 -15 65 -8 15 -15 35 -15 42 0 13 -14
58 -57 189 -9 28 -23 61 -30 75 -7 14 -13 32 -13 41 0 8 -7 24 -15 35 -8 10
-15 26 -15 35 0 9 -7 22 -15 29 -8 7 -15 23 -15 35 0 12 -7 28 -15 35 -8 7
-15 18 -15 25 0 8 -7 26 -14 42 -8 15 -18 35 -21 43 -3 8 -14 29 -25 45 -11
17 -22 37 -26 45 -3 8 -10 22 -15 30 -5 8 -14 27 -20 43 -6 15 -15 27 -20 27
-5 0 -9 6 -9 13 0 8 -13 33 -30 55 -16 23 -30 44 -30 46 0 5 -65 106 -78 121
-5 6 -26 34 -46 63 -20 29 -44 61 -54 70 -9 10 -44 49 -77 87 -111 128 -150
167 -234 239 -87 72 -266 196 -284 196 -6 0 -21 9 -33 21 -20 19 -21 23 -8 47
19 37 19 188 -1 226 -8 15 -15 35 -15 42 0 43 -126 185 -186 210 -18 8 -35 18
-39 24 -3 5 -21 10 -39 10 -19 0 -39 7 -46 15 -9 11 -34 15 -95 15 -61 0 -86
-4 -95 -15 -7 -8 -24 -15 -39 -15 -34 0 -148 -57 -192 -95 -69 -62 -115 -136
-139 -230 -22 -82 -23 -130 -6 -163 9 -17 16 -49 16 -70 0 -23 6 -45 15 -52 8
-7 15 -21 15 -31 0 -26 117 -143 170 -169 25 -12 58 -28 73 -36 42 -21 254
-19 304 2 89 38 109 47 126 56 13 6 24 5 35 -4 182 -144 352 -307 447 -427
110 -139 225 -307 225 -327 0 -8 4 -14 9 -14 4 0 22 -26 38 -57 16 -32 45 -89
64 -128 20 -38 46 -92 58 -120 12 -27 26 -58 32 -67 5 -10 9 -23 9 -30 0 -7 6
-25 14 -40 8 -15 17 -42 21 -60 9 -41 35 -127 46 -150 10 -20 -5 -33 -23 -22
-7 5 -44 34 -83 65 -70 56 -296 213 -347 240 -15 8 -61 32 -103 53 -42 22 -81
46 -87 53 -6 7 -16 13 -22 13 -7 0 -17 5 -24 12 -16 16 -81 38 -113 38 -37 0
-91 -40 -100 -74 -9 -32 -2 -84 15 -105 5 -7 15 -23 21 -34 5 -12 30 -36 55
-55 25 -19 63 -50 85 -69 22 -20 58 -48 80 -62 22 -14 44 -31 48 -38 4 -7 13
-13 20 -13 7 0 35 -19 62 -43 28 -23 82 -67 120 -97 93 -72 137 -111 213 -190
119 -124 213 -286 233 -400 4 -25 12 -63 18 -85 16 -62 13 -371 -4 -420 -8
-22 -15 -53 -15 -68 0 -15 -7 -44 -15 -64 -8 -19 -15 -44 -15 -55 0 -11 -6
-34 -13 -51 -8 -18 -25 -65 -38 -105 -13 -41 -27 -76 -31 -79 -5 -2 -8 -11 -8
-19 0 -16 -33 -98 -50 -124 -6 -8 -13 -22 -16 -30 -3 -8 -10 -22 -15 -30 -5
-8 -12 -22 -15 -30 -3 -8 -10 -22 -15 -30 -5 -8 -14 -26 -20 -40 -6 -14 -21
-39 -35 -57 -13 -17 -24 -38 -24 -47 0 -8 -6 -19 -12 -23 -15 -9 -33 -37 -48
-70 -5 -13 -13 -23 -17 -23 -5 0 -17 -17 -28 -37 -11 -20 -25 -42 -31 -48 -6
-6 -29 -37 -52 -69 -22 -32 -55 -75 -74 -95 -18 -20 -51 -58 -73 -86 -55 -71
-533 -543 -567 -561 -33 -17 -34 -15 -8 36 11 22 20 45 20 52 0 7 6 24 13 38
8 15 17 56 20 93 3 37 11 76 17 86 16 30 12 249 -5 296 -8 22 -14 58 -15 80 0
22 -7 51 -15 65 -8 14 -14 35 -15 47 0 23 -9 47 -55 143 -65 137 -123 220
-229 325 -78 77 -216 173 -322 224 -38 19 -81 40 -96 47 -14 8 -37 14 -51 14
-13 0 -41 7 -60 15 -46 19 -182 20 -218 1 -14 -7 -37 -16 -51 -19 -14 -4 -38
-23 -53 -43 -23 -30 -27 -45 -26 -96 0 -48 6 -67 26 -93 30 -40 124 -85 215
-104 19 -4 44 -12 55 -19 11 -6 27 -13 35 -16 74 -29 188 -123 252 -208 47
-62 118 -208 118 -242 0 -13 7 -40 15 -59 10 -24 15 -70 15 -135 0 -66 -5
-112 -15 -135 -8 -20 -15 -50 -15 -67 0 -17 -5 -41 -12 -53 -6 -12 -15 -35
-19 -52 -13 -50 -35 -105 -47 -117 -7 -7 -12 -20 -12 -29 0 -9 -7 -22 -15 -29
-8 -7 -15 -19 -15 -27 0 -7 -9 -26 -19 -41 -10 -15 -41 -61 -67 -102 -26 -41
-52 -79 -56 -85 -4 -5 -40 -53 -80 -106 -102 -135 -218 -278 -278 -342 -28
-30 -67 -76 -88 -103 -20 -27 -50 -62 -65 -79 -16 -16 -46 -55 -68 -85 -22
-30 -54 -74 -72 -96 -57 -74 -151 -207 -176 -248 -14 -23 -28 -43 -31 -46 -4
-3 -13 -17 -21 -32 -8 -15 -34 -62 -59 -105 -25 -43 -52 -90 -60 -105 -8 -14
-22 -39 -31 -55 -31 -54 -119 -228 -119 -235 0 -4 -13 -30 -30 -58 -16 -28
-30 -58 -30 -66 0 -9 -6 -28 -13 -42 -8 -15 -21 -42 -30 -60 -9 -19 -17 -43
-17 -55 0 -12 -7 -35 -15 -50 -8 -15 -17 -45 -21 -65 -7 -39 -29 -82 -43 -82
-9 0 -25 43 -60 155 -37 118 -55 160 -131 315 -56 114 -125 244 -159 300 -11
19 -26 46 -32 60 -5 13 -14 27 -18 30 -4 3 -20 27 -36 54 -36 58 -40 65 -130
198 -38 56 -104 147 -145 201 -41 55 -84 111 -95 125 -65 86 -177 217 -238
281 -69 72 -88 95 -224 269 -34 44 -68 86 -75 93 -27 27 -118 163 -118 175 0
7 -4 14 -9 16 -12 4 -81 133 -81 151 0 8 -7 20 -15 27 -8 7 -15 22 -15 34 0
11 -7 30 -15 40 -8 11 -15 31 -15 45 0 14 -7 35 -15 45 -8 11 -15 34 -15 51 0
18 -7 54 -15 81 -19 63 -19 170 0 224 8 23 15 58 15 76 0 18 7 50 16 71 40 94
47 109 55 123 5 8 13 24 18 35 36 81 275 255 349 255 10 0 27 7 38 15 10 8 27
15 36 15 20 0 95 38 104 51 3 5 13 9 24 9 27 0 62 66 67 132 5 52 4 58 -22 82
-16 15 -40 29 -54 32 -14 3 -40 12 -58 20 -41 18 -186 18 -238 -1 -22 -8 -52
-15 -66 -15 -14 0 -34 -7 -45 -15 -10 -8 -27 -15 -36 -15 -9 0 -23 -7 -31 -15
-8 -7 -26 -17 -41 -21 -14 -3 -26 -10 -26 -14 0 -5 -9 -12 -20 -15 -72 -23
-279 -207 -350 -311 -62 -91 -79 -117 -86 -134 -12 -30 -37 -86 -50 -113 -8
-16 -14 -39 -14 -51 0 -12 -7 -31 -15 -42 -8 -10 -15 -35 -15 -55 0 -19 -7
-56 -16 -81 -12 -37 -14 -84 -11 -249 4 -197 12 -258 42 -319 7 -14 15 -37 19
-52 11 -46 -26 -35 -70 20 -20 26 -112 121 -203 212 -92 91 -188 190 -215 220
-27 30 -84 93 -128 139 -43 45 -97 108 -120 140 -23 31 -47 60 -55 64 -7 4
-13 13 -13 19 0 5 -13 27 -30 48 -16 21 -30 41 -30 45 0 3 -13 25 -29 48 -15
23 -31 52 -35 65 -4 12 -12 22 -17 22 -5 0 -9 9 -9 19 0 11 -7 26 -15 35 -8 8
-15 19 -15 25 0 6 -13 37 -29 68 -15 32 -38 81 -50 108 -13 28 -30 66 -38 85
-9 19 -19 42 -24 51 -4 9 -11 34 -15 54 -4 21 -13 50 -20 64 -8 14 -14 40 -14
56 0 17 -5 36 -11 42 -5 5 -14 46 -19 89 -5 43 -13 95 -19 114 -17 53 -13 346
4 395 8 22 15 51 15 65 0 14 7 38 15 54 8 15 15 34 15 41 0 14 69 157 80 165
4 3 24 30 45 60 45 63 131 150 230 228 39 31 75 61 80 68 9 10 254 199 324
249 15 11 51 50 79 87 48 62 52 70 52 121 0 48 -4 58 -26 76 -15 12 -35 21
-45 21 -24 0 -122 -26 -145 -38 -11 -6 -26 -13 -34 -16 -8 -4 -28 -15 -45 -26
-16 -11 -40 -24 -52 -30 -13 -5 -23 -14 -23 -20 0 -5 -7 -10 -15 -10 -9 0
-116 -76 -240 -170 -124 -93 -234 -170 -245 -170 -23 0 -27 26 -7 55 8 11 17
35 20 52 4 18 20 62 37 97 16 36 30 71 30 79 0 7 4 17 8 23 5 5 21 42 37 82
16 40 32 75 37 78 4 3 8 13 8 23 0 10 7 24 15 31 8 7 15 20 15 30 0 10 7 23
15 30 8 7 15 18 15 26 0 7 14 33 30 57 17 25 30 47 30 50 0 9 79 125 89 132 6
3 23 25 39 49 39 57 258 288 361 381 52 46 221 175 231 175 3 0 39 -16 79 -36
71 -35 74 -35 174 -31 98 3 163 19 189 45 7 7 20 12 29 12 23 0 151 121 170
161 47 98 49 109 49 222 -1 83 -4 117 -15 131 -8 11 -15 30 -15 42 0 12 -7 27
-15 34 -8 7 -15 18 -15 24 0 18 -104 126 -122 126 -8 0 -21 7 -28 15 -7 8 -20
15 -29 15 -9 0 -25 7 -35 15 -11 8 -29 15 -40 15 -12 0 -34 7 -50 15 -38 20
-174 20 -200 0z m-1161 -2284 c3 -5 1 -12 -5 -16 -5 -3 -10 1 -10 9 0 18 6 21
15 7z m4099 -4667 c9 -3 16 -17 16 -31 0 -40 -46 -168 -79 -223 -5 -8 -12 -22
-15 -30 -3 -8 -10 -22 -15 -30 -9 -15 -35 -73 -45 -100 -3 -8 -10 -22 -15 -30
-5 -8 -12 -22 -15 -30 -3 -8 -10 -22 -14 -30 -27 -48 -42 -84 -42 -100 0 -9
-7 -23 -15 -30 -8 -7 -15 -23 -15 -35 0 -12 -7 -28 -15 -35 -8 -7 -15 -22 -15
-34 0 -12 -7 -31 -15 -42 -8 -10 -15 -26 -15 -34 0 -8 -13 -47 -29 -87 -16
-39 -33 -93 -37 -120 -3 -26 -10 -52 -14 -58 -5 -5 -12 -37 -18 -70 -5 -33
-15 -73 -20 -90 -30 -86 -36 -232 -39 -1037 -3 -509 0 -841 6 -880 14 -90 26
-140 39 -163 6 -11 30 -60 55 -110 55 -113 95 -187 108 -200 5 -5 9 -17 9 -27
0 -10 4 -18 10 -18 5 0 13 -12 16 -27 4 -16 12 -35 19 -43 7 -8 15 -26 18 -40
3 -14 10 -38 15 -55 41 -120 42 -140 42 -812 0 -607 -1 -652 -19 -713 -10 -36
-26 -82 -35 -103 -20 -46 -77 -141 -88 -145 -4 -2 -8 -9 -8 -16 0 -7 -12 -31
-27 -53 -64 -90 -133 -232 -133 -271 0 -11 -6 -35 -14 -54 -21 -49 -21 -1063
0 -1123 7 -22 14 -53 14 -70 0 -46 68 -233 111 -305 5 -8 13 -24 18 -35 5 -11
34 -57 65 -103 31 -46 56 -89 56 -97 0 -8 5 -17 10 -20 6 -4 17 -23 25 -43 9
-19 30 -59 49 -86 18 -28 36 -58 39 -66 10 -22 27 -47 81 -120 71 -95 102
-127 212 -221 54 -46 106 -90 114 -97 8 -7 35 -29 60 -48 62 -49 450 -433 450
-445 0 -6 21 -37 46 -70 45 -59 114 -182 114 -205 0 -6 7 -25 15 -40 8 -16 15
-38 15 -50 0 -11 5 -25 10 -30 6 -6 15 -44 20 -85 5 -41 14 -92 19 -114 13
-49 13 -577 0 -660 -5 -33 -13 -97 -18 -141 -5 -45 -14 -91 -20 -102 -6 -11
-11 -29 -11 -39 0 -10 -7 -31 -15 -47 -8 -15 -15 -36 -15 -45 0 -10 -7 -26
-15 -37 -8 -10 -15 -25 -15 -32 0 -21 -69 -172 -82 -182 -4 -3 -12 -17 -18
-30 -37 -86 -211 -324 -299 -410 -76 -74 -144 -131 -149 -125 -5 4 6 18 89
119 23 28 53 68 68 90 14 23 38 55 53 71 16 17 28 34 28 39 0 4 12 25 28 45
33 43 49 69 61 96 5 11 21 37 35 58 14 21 26 44 26 51 0 6 7 21 15 32 8 10 15
28 15 40 0 11 7 29 15 40 8 10 15 26 15 34 0 8 6 27 14 41 7 14 21 50 30 80
16 50 21 81 46 274 11 89 11 663 0 730 -12 73 -30 147 -40 170 -5 11 -12 31
-15 45 -5 21 -86 187 -120 249 -26 46 -140 188 -170 211 -18 14 -77 66 -131
117 -55 50 -117 104 -139 118 -22 15 -47 35 -56 44 -8 9 -60 57 -114 106 -190
174 -286 277 -310 330 -7 17 -23 39 -35 50 -12 11 -26 29 -31 40 -5 11 -24 47
-42 80 -140 255 -177 326 -177 343 0 6 -4 12 -9 12 -5 0 -12 13 -16 30 -4 16
-10 30 -15 30 -5 0 -12 10 -15 23 -4 12 -19 49 -34 82 -16 33 -34 76 -41 95
-18 50 -30 250 -33 575 -2 154 -7 375 -11 490 -6 152 -5 222 4 255 6 25 15 63
19 85 5 22 16 56 25 75 15 33 22 45 46 88 6 9 15 28 20 41 6 14 30 54 54 90
24 36 46 73 50 81 3 8 15 29 26 45 11 17 22 37 26 45 3 8 11 29 19 45 52 116
50 83 50 750 0 618 0 620 -23 710 -13 50 -28 94 -33 100 -5 5 -9 16 -9 25 0 8
-6 26 -13 40 -8 14 -37 69 -66 123 -28 54 -62 116 -76 137 -14 22 -25 43 -25
46 0 4 -9 25 -19 48 -41 89 -50 125 -56 221 -9 128 -9 32 -2 1065 4 632 9 907
17 935 6 22 15 64 20 94 5 29 13 58 19 64 6 6 11 25 11 42 0 17 7 40 15 51 8
10 15 28 15 40 0 11 7 29 15 40 8 10 15 26 15 34 0 8 9 33 20 55 11 22 19 46
20 53 0 7 4 20 9 30 9 16 37 76 112 237 15 33 30 67 33 75 3 8 10 22 15 30 5
8 12 22 15 30 3 8 10 23 16 33 5 9 15 25 20 35 6 9 13 24 16 32 3 8 9 22 14
30 5 8 21 38 36 65 36 68 85 133 101 135 1 0 8 -3 17 -6z m-1673 -49 c32 -47
103 -181 190 -358 19 -38 40 -73 46 -79 7 -6 13 -15 13 -21 0 -6 20 -52 45
-104 25 -51 45 -98 45 -103 0 -10 12 -41 50 -125 40 -90 50 -116 50 -133 0
-11 7 -36 15 -55 8 -20 15 -54 15 -76 0 -22 6 -52 13 -68 9 -22 13 -278 18
-1118 4 -826 8 -1105 18 -1150 13 -61 46 -140 62 -151 5 -3 9 -13 9 -23 0 -9
13 -30 28 -47 15 -16 52 -60 82 -99 30 -38 58 -74 62 -80 53 -66 98 -137 104
-160 4 -17 11 -35 16 -41 5 -7 13 -36 18 -65 6 -30 14 -74 20 -99 5 -26 9
-326 10 -713 l0 -668 -22 -29 c-17 -24 -29 -30 -60 -30 -35 0 -38 2 -39 28 0
15 -1 342 -2 728 -2 500 -5 705 -13 715 -6 8 -15 31 -18 52 -8 42 -58 141 -91
179 -11 13 -54 64 -95 113 -41 50 -77 92 -81 95 -13 10 -66 126 -83 180 -38
127 -39 156 -45 1240 -4 656 -10 1071 -16 1080 -5 8 -15 47 -22 85 -15 86 -31
150 -49 193 -8 18 -14 41 -14 52 0 11 -6 34 -14 52 -8 18 -22 51 -31 73 -9 22
-23 52 -31 67 -7 14 -14 33 -14 41 0 8 -7 20 -15 27 -8 7 -15 23 -15 35 0 12
-7 28 -15 35 -8 7 -15 18 -15 25 0 8 -6 26 -14 42 -8 15 -21 45 -30 66 -37 88
-49 113 -57 127 -5 8 -12 22 -15 30 -3 8 -18 42 -34 75 -16 33 -32 72 -36 88
-3 15 -10 30 -15 33 -5 3 -9 23 -9 45 0 38 2 40 27 37 19 -2 36 -15 54 -43z
m110 -2798 c9 -12 24 -58 33 -103 13 -68 16 -152 16 -515 0 -548 5 -577 131
-727 75 -89 145 -195 163 -246 49 -141 46 -55 46 -1465 0 -1291 0 -1318 -20
-1374 -11 -31 -20 -68 -20 -81 0 -14 -4 -28 -10 -31 -5 -3 -10 -15 -10 -25 0
-10 -7 -25 -15 -34 -8 -8 -15 -19 -15 -25 0 -15 -70 -146 -114 -215 -21 -32
-41 -69 -46 -81 -5 -13 -14 -26 -19 -30 -6 -3 -11 -15 -11 -26 0 -10 -4 -19
-9 -19 -5 0 -21 -24 -34 -52 -14 -29 -37 -70 -51 -91 -14 -21 -26 -40 -26 -43
0 -3 -34 -50 -75 -104 -75 -97 -184 -202 -406 -390 -134 -113 -362 -337 -398
-390 -83 -121 -108 -161 -138 -220 -18 -35 -33 -72 -33 -81 0 -9 -7 -30 -15
-45 -8 -16 -15 -40 -15 -55 0 -14 -4 -29 -9 -35 -6 -5 -14 -34 -20 -64 -5 -30
-15 -75 -20 -100 -6 -25 -10 -190 -11 -370 0 -258 3 -338 15 -383 8 -32 15
-75 15 -95 0 -20 5 -53 10 -72 5 -19 14 -55 20 -80 13 -52 19 -68 49 -131 11
-25 21 -51 21 -58 0 -6 4 -19 10 -29 5 -9 21 -42 35 -72 14 -30 35 -68 45 -85
11 -16 23 -37 26 -45 11 -23 96 -154 109 -165 37 -35 165 -187 165 -197 0 -6
8 -17 17 -24 10 -7 14 -16 10 -20 -11 -11 -250 228 -293 293 -19 29 -40 58
-47 65 -15 16 -101 147 -110 168 -4 8 -11 22 -16 30 -16 26 -71 147 -71 156
-1 5 -9 27 -20 49 -11 22 -19 47 -20 56 0 9 -7 30 -15 45 -8 16 -15 40 -15 54
0 14 -5 41 -10 60 -6 19 -15 64 -20 100 -5 36 -13 88 -19 115 -5 28 -10 199
-10 380 0 262 3 338 14 370 8 22 15 57 15 78 0 21 7 54 15 74 8 19 15 43 15
52 0 9 7 29 15 45 8 15 15 32 15 36 0 7 28 53 82 134 68 101 518 557 683 691
142 116 289 290 342 405 3 8 17 29 29 45 12 17 27 41 33 55 6 14 15 32 20 40
5 8 12 22 16 30 3 8 21 42 40 75 19 33 39 71 45 85 6 14 21 38 33 55 37 51 77
149 92 225 4 19 12 41 19 49 14 18 21 2473 7 2565 -16 102 -31 164 -46 193 -8
15 -15 34 -15 41 0 6 -4 12 -9 12 -5 0 -13 10 -16 23 -4 12 -19 36 -35 52 -15
17 -48 59 -75 95 -26 36 -53 70 -59 75 -18 16 -39 65 -53 125 -10 41 -15 172
-18 500 -3 362 -7 454 -19 495 -23 74 -21 160 5 196 24 35 58 37 80 6z m-1431
-4494 c0 -5 -28 -24 -61 -43 -34 -19 -71 -43 -83 -53 -48 -43 -207 -143 -256
-163 -8 -3 -22 -9 -30 -13 -112 -59 -215 -107 -247 -116 -13 -3 -23 -10 -23
-15 0 -4 -10 -10 -22 -13 -13 -3 -70 -23 -128 -46 -58 -23 -125 -45 -150 -50
-72 -16 -134 -33 -154 -43 -11 -6 -47 -13 -80 -15 -34 -3 -66 -9 -72 -14 -6
-5 -37 -11 -70 -15 -32 -3 -78 -12 -102 -20 -23 -8 -69 -14 -101 -14 -32 0
-78 -7 -101 -15 -23 -8 -66 -15 -94 -15 -30 0 -60 -6 -72 -15 -10 -8 -30 -15
-44 -15 -14 0 -34 -7 -44 -15 -11 -8 -28 -15 -37 -15 -10 0 -30 -7 -46 -14
-15 -8 -35 -17 -43 -20 -8 -3 -22 -10 -30 -15 -8 -5 -22 -12 -30 -16 -15 -6
-24 -11 -95 -55 -22 -14 -61 -36 -87 -48 -26 -13 -50 -27 -53 -33 -11 -16 -25
-10 -25 12 0 23 63 118 122 184 19 22 60 69 89 105 44 51 155 152 269 243 34
27 158 105 200 126 93 47 102 51 118 51 9 0 26 7 36 15 11 8 34 15 50 15 17 1
42 7 56 15 14 8 53 14 90 15 36 0 87 7 114 15 39 12 111 15 340 15 172 0 305
4 326 10 19 6 90 14 157 19 68 5 128 13 135 18 7 6 34 14 60 17 25 4 72 18
105 31 58 23 113 32 113 18z m4425 -33 c51 -21 132 -41 201 -50 41 -5 80 -12
85 -16 6 -3 180 -10 387 -15 371 -8 566 -23 609 -47 12 -7 32 -12 45 -12 13 0
32 -7 42 -15 11 -8 30 -15 42 -15 12 0 27 -7 34 -15 7 -8 21 -15 31 -15 10 0
21 -5 24 -11 4 -5 17 -15 28 -20 12 -5 36 -18 52 -28 17 -11 53 -31 81 -46 28
-15 62 -37 75 -48 13 -12 43 -35 66 -50 54 -37 175 -167 236 -254 71 -100 137
-205 137 -216 0 -14 -47 1 -93 31 -23 14 -58 35 -77 45 -19 11 -37 23 -40 27
-3 3 -27 17 -55 30 -27 12 -62 29 -77 36 -14 8 -33 14 -41 14 -9 0 -28 6 -44
14 -49 24 -96 38 -154 46 -30 4 -65 12 -77 19 -11 6 -47 11 -79 11 -32 1 -76
7 -98 15 -22 8 -59 15 -83 15 -23 0 -59 7 -79 15 -19 8 -51 15 -70 15 -18 0
-50 7 -70 15 -19 8 -46 15 -60 15 -13 0 -36 6 -51 14 -15 7 -48 16 -74 20 -26
4 -50 11 -53 15 -2 5 -21 12 -41 16 -20 3 -44 10 -53 14 -9 5 -32 15 -51 24
-19 8 -55 24 -80 35 -25 11 -52 23 -60 26 -8 3 -22 10 -30 15 -8 5 -22 12 -30
15 -8 3 -23 10 -32 16 -32 18 -52 29 -113 60 -124 62 -305 166 -315 180 -3 4
-14 10 -25 14 -35 12 -71 46 -56 55 13 9 54 4 86 -9z m-1148 -169 c59 -60 129
-127 154 -148 25 -21 69 -58 99 -83 29 -25 58 -49 64 -55 43 -38 295 -205 311
-205 8 0 16 -4 19 -8 7 -12 143 -82 160 -82 7 0 19 -7 26 -15 7 -8 22 -15 34
-15 12 0 31 -7 42 -15 10 -8 25 -15 32 -15 8 0 28 -6 45 -14 18 -8 64 -24 102
-36 39 -12 84 -29 102 -36 17 -8 40 -14 50 -14 10 0 23 -4 29 -10 5 -5 30 -14
54 -19 25 -5 61 -14 80 -21 19 -7 49 -16 65 -22 17 -6 44 -13 60 -16 17 -2 39
-11 50 -18 11 -8 31 -14 46 -14 15 0 32 -7 39 -15 7 -8 23 -15 35 -15 12 0 28
-7 35 -15 7 -8 25 -15 40 -15 15 0 33 -7 40 -15 7 -8 17 -15 22 -15 6 0 30
-13 55 -30 24 -16 47 -30 50 -30 3 0 22 -13 42 -29 20 -15 46 -31 58 -35 27
-9 249 -229 288 -287 17 -24 38 -52 47 -63 9 -10 22 -31 28 -47 7 -16 16 -29
21 -29 5 0 9 -5 9 -11 0 -16 42 -101 58 -117 6 -7 12 -21 12 -30 0 -9 7 -26
15 -36 8 -11 15 -29 15 -40 0 -12 7 -30 15 -40 8 -11 15 -29 15 -40 0 -12 7
-30 15 -40 8 -11 15 -34 15 -52 0 -17 7 -45 15 -60 8 -16 15 -42 15 -59 0 -16
7 -48 15 -70 8 -22 14 -74 15 -115 0 -41 6 -86 13 -100 12 -24 86 -66 228
-129 29 -14 68 -35 86 -48 60 -44 103 -24 103 49 0 18 7 58 15 88 19 70 19
136 0 225 -8 38 -15 95 -15 126 0 31 -7 76 -15 99 -8 23 -15 63 -15 89 0 25
-7 59 -15 75 -8 15 -15 40 -15 55 0 15 -7 36 -15 47 -8 10 -15 27 -15 36 0 22
-19 65 -87 203 -63 127 -69 137 -105 186 -16 20 -28 40 -28 44 0 11 -68 93
-123 148 -27 26 -47 53 -44 60 5 16 124 10 186 -9 25 -8 64 -14 86 -14 22 0
53 -7 69 -15 15 -8 39 -15 53 -15 22 0 44 -9 103 -41 8 -4 40 -20 70 -35 30
-15 57 -29 60 -33 3 -3 30 -23 60 -43 95 -64 234 -226 279 -325 5 -11 15 -24
20 -28 6 -3 11 -14 11 -24 0 -9 5 -22 12 -29 13 -13 35 -69 49 -127 6 -22 14
-44 20 -49 5 -6 9 -21 9 -35 0 -15 6 -46 14 -71 17 -51 47 -281 46 -352 0 -26
-5 -59 -10 -74 -6 -14 -13 -67 -16 -118 -4 -50 -12 -110 -20 -134 -8 -23 -14
-60 -14 -81 0 -21 -7 -52 -15 -67 -8 -16 -15 -44 -15 -62 0 -18 -7 -43 -15
-56 -9 -13 -13 -30 -10 -38 10 -26 76 -46 170 -52 49 -4 94 -11 99 -16 6 -6
32 -10 60 -10 56 0 96 27 96 65 0 12 7 30 15 41 8 10 15 28 15 40 0 11 7 29
15 40 8 10 15 31 15 46 0 15 6 42 14 60 17 39 32 111 51 233 8 50 16 101 19
115 3 14 8 46 11 73 6 42 9 47 32 47 15 0 45 -17 75 -42 59 -49 168 -189 168
-215 0 -11 7 -28 15 -39 8 -10 15 -27 15 -37 0 -10 7 -28 15 -41 33 -50 29
-254 -6 -346 -24 -62 -97 -122 -180 -149 -41 -13 -85 -28 -99 -34 -35 -15
-313 -21 -380 -8 -113 21 -165 33 -175 41 -5 4 -23 10 -40 14 -16 4 -43 13
-60 21 -59 27 -103 45 -111 45 -9 0 -126 54 -154 71 -8 5 -37 20 -65 34 -27
15 -63 35 -80 45 -16 11 -39 24 -50 30 -11 5 -27 14 -35 19 -8 5 -22 12 -30
15 -8 3 -22 10 -30 15 -8 5 -35 19 -60 31 -71 34 -170 87 -183 98 -15 12 -204
108 -307 155 -126 59 -204 95 -220 101 -8 3 -22 10 -30 15 -8 5 -22 12 -30 15
-8 3 -22 10 -30 15 -8 5 -33 18 -55 28 -86 40 -155 95 -290 229 -200 199 -315
319 -315 327 0 14 234 7 275 -8 22 -8 54 -14 71 -15 18 0 45 -7 60 -15 16 -8
38 -15 49 -15 11 0 29 -7 39 -15 11 -8 30 -15 42 -15 12 0 35 -6 51 -14 101
-52 165 -77 185 -74 21 3 23 7 20 58 -2 30 -10 62 -18 71 -7 8 -14 18 -14 22
0 29 -161 217 -185 217 -6 0 -24 13 -41 28 -16 16 -36 32 -44 35 -8 4 -28 16
-45 27 -28 18 -35 22 -67 35 -7 3 -20 9 -28 14 -20 11 -77 31 -125 42 -22 6
-44 14 -49 20 -6 5 -21 9 -33 9 -13 0 -36 6 -51 14 -15 7 -64 16 -110 19 -45
4 -91 11 -101 17 -11 5 -47 10 -81 10 -33 0 -77 7 -97 15 -19 8 -43 15 -53 15
-20 0 -148 37 -172 51 -10 5 -23 9 -29 9 -18 0 -217 100 -230 116 -6 8 -16 14
-21 14 -25 0 -271 202 -343 282 -44 49 -87 97 -96 106 -9 10 -33 42 -54 72
-21 30 -41 57 -44 60 -4 3 -22 30 -41 60 -19 30 -41 64 -48 75 -6 11 -15 27
-19 35 -4 8 -18 33 -32 55 -41 65 -44 70 -84 152 -22 43 -45 91 -53 107 -16
31 -31 116 -21 116 3 0 55 -49 114 -109z m-2167 76 c0 -8 -11 -34 -25 -58 -13
-24 -29 -54 -34 -66 -5 -11 -15 -24 -20 -28 -6 -3 -11 -13 -11 -20 0 -20 -63
-152 -94 -198 -14 -21 -26 -40 -26 -42 0 -3 -23 -39 -82 -129 -92 -140 -267
-339 -353 -401 -22 -16 -57 -44 -77 -62 -83 -72 -306 -194 -418 -228 -30 -9
-62 -20 -71 -25 -9 -5 -34 -12 -55 -15 -22 -4 -58 -13 -82 -21 -23 -8 -61 -14
-83 -14 -22 0 -50 -5 -61 -11 -12 -7 -62 -15 -112 -20 -196 -18 -339 -72 -522
-197 -47 -32 -163 -151 -177 -182 -4 -8 -18 -35 -32 -59 -14 -24 -25 -50 -25
-56 0 -7 -7 -18 -15 -25 -9 -7 -15 -29 -15 -51 0 -36 2 -39 29 -39 16 0 34 7
41 15 7 8 18 15 25 15 7 0 18 7 25 15 7 8 22 15 34 15 12 0 31 7 42 15 10 8
30 15 44 15 14 0 34 7 44 15 11 8 31 15 44 15 13 0 38 6 55 14 50 22 155 44
236 51 41 3 79 9 85 14 6 5 28 12 49 16 29 6 37 4 37 -8 0 -14 -21 -33 -107
-102 -18 -14 -56 -56 -85 -93 -117 -147 -376 -382 -422 -382 -7 0 -19 -7 -26
-15 -7 -8 -20 -15 -30 -15 -10 0 -23 -7 -30 -15 -7 -8 -19 -15 -28 -15 -19 0
-100 -38 -108 -51 -3 -5 -14 -9 -24 -9 -10 0 -31 -6 -47 -14 -15 -8 -46 -22
-68 -31 -22 -10 -53 -24 -68 -31 -16 -8 -37 -14 -47 -14 -10 0 -21 -4 -24 -9
-3 -4 -32 -21 -63 -36 -32 -15 -65 -31 -73 -36 -8 -4 -42 -22 -75 -40 -33 -17
-67 -37 -75 -44 -8 -8 -26 -18 -40 -24 -14 -6 -38 -20 -55 -31 -16 -10 -79
-44 -140 -75 -60 -31 -123 -65 -140 -76 -16 -10 -37 -22 -45 -25 -8 -3 -19 -8
-25 -10 -5 -2 -17 -8 -25 -13 -8 -5 -22 -12 -30 -15 -8 -3 -22 -10 -30 -14
-19 -11 -70 -35 -135 -62 -27 -11 -57 -24 -65 -29 -9 -5 -31 -12 -50 -16 -19
-4 -40 -11 -45 -16 -6 -4 -35 -12 -65 -18 -30 -5 -73 -14 -95 -20 -47 -12
-276 -13 -355 -1 -133 20 -209 51 -269 110 -69 68 -81 108 -81 258 0 100 4
140 16 169 32 73 43 98 48 113 8 22 24 45 88 131 55 73 158 159 192 159 17 0
26 -31 26 -96 0 -28 5 -64 10 -80 6 -16 14 -65 20 -109 11 -102 52 -271 76
-317 8 -14 14 -37 14 -50 0 -13 7 -33 15 -44 8 -10 15 -27 15 -37 0 -11 14
-24 37 -34 32 -13 48 -14 106 -4 37 6 106 11 152 11 82 0 86 1 97 25 9 21 8
32 -5 61 -9 19 -17 51 -17 72 0 20 -7 50 -15 66 -8 15 -15 43 -15 60 0 18 -6
56 -14 86 -40 160 -21 634 30 732 8 14 14 39 14 55 1 15 7 39 15 53 8 14 14
35 15 46 0 12 7 27 15 34 8 7 15 18 15 25 0 37 160 256 234 320 32 28 68 58
79 68 11 9 23 17 28 17 4 0 31 16 60 36 100 67 252 130 349 145 30 4 73 13 95
18 53 14 132 14 140 0 4 -5 -17 -36 -47 -67 -144 -155 -162 -180 -232 -327
-21 -44 -44 -92 -52 -107 -8 -14 -14 -33 -14 -41 0 -9 -6 -28 -14 -44 -19 -39
-37 -92 -44 -128 -2 -16 -11 -39 -18 -50 -8 -11 -14 -31 -14 -46 0 -15 -7 -46
-15 -69 -8 -23 -15 -68 -15 -99 0 -31 -7 -78 -15 -105 -22 -73 -22 -424 1
-433 8 -3 47 9 86 26 39 17 76 31 83 31 7 0 18 7 25 15 7 8 21 15 32 15 10 0
30 8 45 17 25 17 26 16 49 -12 l23 -28 48 24 48 25 13 75 c7 41 16 112 21 159
5 47 14 98 20 113 6 16 11 43 11 60 1 18 7 43 15 57 8 14 14 36 15 50 0 14 7
38 15 54 8 15 15 34 15 41 0 17 100 216 117 233 7 7 13 19 13 25 0 7 10 23 23
37 12 14 36 45 52 69 42 62 208 225 276 272 31 21 63 44 70 51 25 24 84 61
164 102 28 15 57 30 65 35 40 23 182 77 270 103 19 5 39 14 45 19 5 5 21 9 35
9 14 0 35 7 46 15 10 8 35 15 54 15 19 0 48 7 64 15 15 8 38 15 50 15 11 0 34
7 49 15 15 8 45 17 65 21 20 4 46 13 57 20 11 8 27 14 37 14 10 0 18 4 18 9 0
5 11 12 24 15 14 3 53 19 88 35 35 15 70 31 78 35 8 3 22 10 30 15 8 5 22 12
30 15 8 3 22 10 30 15 8 5 22 12 30 15 8 4 38 20 65 37 28 16 64 36 80 45 17
8 57 34 90 59 33 25 78 57 100 72 63 42 207 168 323 284 104 103 132 123 132
96z m-3590 -361 c0 -8 -20 -35 -45 -59 -25 -25 -45 -49 -45 -52 0 -4 -12 -24
-27 -44 -16 -20 -32 -44 -38 -53 -5 -9 -32 -49 -60 -90 -27 -40 -56 -86 -65
-101 -8 -15 -38 -67 -65 -115 -28 -48 -58 -103 -67 -122 -9 -19 -44 -93 -78
-165 -85 -178 -96 -201 -135 -270 -19 -33 -39 -70 -44 -83 -6 -12 -27 -40 -47
-61 -19 -22 -46 -54 -60 -73 -47 -65 -87 -108 -100 -108 -18 0 -18 49 0 97 25
66 52 174 75 303 26 139 25 131 5 124 -11 -4 -27 -16 -37 -26 -10 -10 -35 -29
-55 -42 -20 -13 -73 -60 -117 -104 -44 -45 -84 -82 -88 -82 -5 0 -23 -11 -41
-25 -18 -14 -52 -35 -77 -49 -24 -13 -65 -35 -91 -48 -25 -14 -59 -28 -75 -31
-29 -5 -102 -30 -138 -47 -94 -44 -232 -66 -405 -64 -98 0 -243 18 -270 33 -9
5 -31 12 -50 15 -48 10 -149 55 -215 96 -16 10 -47 28 -68 40 -21 11 -53 34
-70 50 -18 17 -35 30 -39 30 -4 0 -20 18 -34 40 -21 31 -24 44 -16 52 7 7 12
21 12 33 0 11 7 33 15 49 8 15 15 33 15 38 0 10 29 79 58 137 9 19 50 84 90
145 129 195 304 346 507 439 22 10 53 25 68 33 16 8 36 14 45 14 9 0 26 7 36
15 11 8 33 15 49 15 15 0 38 5 50 12 12 6 40 15 62 19 22 4 54 12 70 17 37 13
255 42 313 42 30 0 44 -5 49 -16 7 -19 -7 -31 -127 -111 -47 -32 -92 -64 -101
-73 -9 -8 -52 -44 -95 -79 -90 -73 -274 -279 -274 -306 0 -4 -11 -21 -24 -38
-14 -18 -29 -43 -35 -57 -6 -14 -15 -32 -20 -40 -20 -32 -70 -146 -77 -173 -3
-15 -10 -30 -15 -33 -5 -3 -9 -21 -9 -40 0 -19 -7 -51 -15 -71 -26 -62 -23
-63 143 -63 199 0 244 19 312 135 14 22 30 45 36 50 7 6 23 26 36 45 75 113
176 226 277 310 30 25 60 51 67 58 22 21 232 160 253 167 10 3 25 12 31 20 7
8 20 15 30 15 10 0 23 7 30 15 7 8 20 15 29 15 10 0 44 14 76 30 32 17 68 30
80 30 12 0 30 7 41 15 10 8 33 15 49 15 17 0 41 7 55 15 14 8 37 14 51 15 15
0 32 7 39 15 7 8 24 15 37 15 14 0 37 6 51 14 15 8 34 17 42 20 8 3 22 10 30
15 48 27 217 109 228 110 6 1 12 -5 12 -13z m9297 -26 c26 -16 52 -30 59 -30
7 0 27 -8 46 -17 18 -9 45 -22 60 -30 14 -7 36 -13 48 -13 12 0 31 -5 43 -12
12 -6 38 -15 57 -19 43 -9 96 -27 133 -45 16 -8 37 -14 47 -14 9 0 23 -7 30
-15 7 -8 21 -15 31 -15 10 0 47 -14 81 -31 35 -17 79 -38 98 -47 60 -27 305
-175 313 -189 4 -7 13 -13 19 -13 24 0 235 -200 263 -249 5 -10 26 -38 45 -62
47 -59 49 -63 125 -219 97 -197 105 -218 126 -340 6 -30 15 -68 21 -85 16 -43
22 -319 9 -382 -6 -29 -16 -77 -22 -105 -17 -90 -74 -225 -130 -313 -10 -16
-23 -40 -29 -52 -5 -13 -16 -23 -23 -23 -10 0 -17 29 -27 108 -7 59 -19 117
-26 129 -8 12 -14 32 -14 44 0 18 -13 49 -41 99 -5 8 -13 24 -18 36 -20 44
-76 130 -107 164 -18 19 -55 64 -83 100 -45 58 -48 65 -30 68 11 2 35 -8 54
-22 18 -14 43 -26 55 -26 11 0 33 -6 48 -14 15 -7 47 -16 72 -20 24 -4 49 -11
55 -15 5 -5 43 -11 82 -14 99 -8 103 -3 97 116 -9 147 -46 219 -137 261 -29
13 -83 39 -122 56 -177 81 -299 146 -351 185 -18 14 -36 25 -39 25 -4 0 -19
11 -33 25 -176 166 -178 166 -175 46 1 -47 7 -89 13 -95 5 -5 10 -16 10 -24 0
-15 38 -106 94 -220 22 -47 34 -92 23 -92 -40 0 -224 183 -305 303 -28 43 -52
84 -52 91 0 7 -7 19 -15 26 -8 7 -15 20 -15 29 0 10 -7 26 -15 37 -8 10 -15
27 -15 37 0 11 -6 31 -13 45 -15 28 -41 86 -51 112 -3 8 -10 22 -15 30 -5 8
-12 22 -15 30 -3 8 -10 22 -15 30 -5 8 -18 35 -30 60 -13 25 -40 77 -61 115
-22 39 -44 79 -50 90 -14 29 -33 57 -47 73 -7 7 -13 19 -13 26 0 7 -13 25 -30
41 -16 16 -30 33 -30 38 0 5 -13 26 -30 47 -16 21 -30 41 -30 44 0 4 -18 31
-40 60 -22 29 -40 56 -40 59 0 15 32 5 77 -23z m1355 -11 c11 -6 54 -13 96
-16 43 -3 82 -10 88 -14 6 -5 33 -12 60 -15 27 -4 54 -11 60 -15 6 -5 33 -12
60 -15 27 -4 59 -13 71 -20 12 -8 33 -14 46 -14 14 0 30 -7 37 -15 7 -8 20
-15 30 -15 10 0 23 -7 30 -15 7 -8 20 -15 30 -15 10 0 23 -7 30 -15 7 -8 20
-15 29 -15 9 0 33 -15 54 -33 20 -19 64 -54 96 -80 62 -48 144 -142 224 -257
56 -81 144 -254 154 -301 3 -18 12 -45 20 -59 7 -14 13 -50 13 -81 0 -50 -4
-61 -33 -94 -46 -52 -216 -146 -307 -170 -14 -4 -48 -19 -77 -33 -60 -31 -71
-26 -79 34 -3 21 -12 53 -20 71 -8 17 -14 38 -14 46 0 8 -7 28 -15 43 -8 16
-15 37 -15 47 0 9 -4 25 -9 35 -9 15 -29 60 -67 150 -8 17 -20 47 -28 65 -8
17 -17 39 -20 47 -4 8 -15 29 -26 45 -11 17 -24 39 -30 50 -11 23 -19 35 -78
123 -66 99 -292 352 -314 352 -6 0 -31 18 -56 41 -58 51 -162 119 -182 119
-22 0 -61 30 -55 41 8 13 172 11 197 -2z m-11852 -1632 c0 -8 -11 -27 -25 -43
-41 -47 -125 -175 -125 -189 0 -8 -4 -16 -9 -20 -6 -3 -20 -27 -32 -53 -12
-26 -28 -59 -35 -74 -8 -14 -14 -37 -14 -50 0 -12 -7 -32 -15 -42 -8 -11 -15
-34 -15 -52 0 -18 -5 -45 -11 -61 -6 -15 -14 -48 -18 -73 -3 -25 -11 -44 -16
-43 -6 1 -32 46 -58 100 -66 134 -75 154 -83 186 -3 15 -10 30 -15 33 -5 3 -9
13 -9 22 0 9 -7 31 -16 47 -15 28 -29 86 -41 165 -7 51 15 66 117 78 106 13
192 29 250 48 25 8 55 14 67 14 12 0 25 5 28 10 10 15 75 12 75 -3z"/>
<path d="M8600 19155 c-14 -7 -38 -19 -54 -27 -39 -18 -157 -137 -178 -179
-51 -104 -53 -112 -53 -220 0 -68 5 -116 14 -135 47 -101 61 -123 105 -166 27
-26 59 -51 70 -54 11 -4 26 -13 34 -20 7 -8 24 -14 36 -14 13 0 29 -6 35 -14
8 -9 10 -173 9 -592 l-3 -578 -30 -6 c-16 -4 -55 -22 -85 -40 -138 -84 -216
-226 -207 -374 6 -96 21 -148 61 -209 61 -93 113 -140 214 -192 l52 -27 0
-699 c0 -658 -1 -699 -17 -699 -40 0 -223 -151 -223 -183 0 -6 -6 -18 -13 -26
-8 -9 -24 -44 -37 -79 -19 -53 -22 -75 -17 -145 5 -80 27 -156 54 -188 7 -8
13 -20 13 -26 0 -23 99 -114 161 -147 78 -41 169 -53 289 -38 84 11 127 26
185 64 72 46 96 75 138 163 46 96 51 119 52 210 0 90 -6 113 -52 200 -18 34
-112 135 -126 135 -5 0 -26 14 -47 30 -21 17 -47 30 -57 30 -11 0 -27 8 -36
18 -16 17 -17 80 -17 701 0 640 1 682 18 687 40 13 91 42 143 81 73 55 108
101 156 208 25 56 25 246 0 290 -9 17 -17 36 -17 42 0 7 -35 48 -77 91 -75 76
-143 122 -182 122 -10 0 -24 6 -30 14 -15 18 -14 1135 1 1153 6 7 39 26 75 43
80 38 171 122 202 187 12 26 27 57 33 68 6 11 13 60 16 110 3 73 0 101 -16
147 -45 126 -153 241 -264 279 -66 23 -287 25 -328 4z"/>
</g></svg>